<?xml version="1.0" encoding="UTF-8" standalone="no"?>
<!DOCTYPE svg PUBLIC "-//W3C//DTD SVG 1.1//EN" "http://www.w3.org/Graphics/SVG/1.1/DTD/svg11.dtd">
<svg xmlns="http://www.w3.org/2000/svg" version="1.1" viewBox="0.00 0.00 2000.00 400.00">
<g stroke-width="2.00" fill="none" stroke-linecap="butt">
<path stroke="#892422" vector-effect="non-scaling-stroke" d="
  M 307.03 288.23
  Q 306.16 290.64 302.77 290.09
  Q 299.95 289.63 298.37 288.92
  A 0.74 0.74 0.0 0 0 297.45 289.18
  C 294.04 294.09 292.54 295.76 289.11 300.84
  Q 286.09 305.32 280.70 310.64
  A 0.85 0.85 0.0 0 0 280.63 311.78
  C 282.47 314.09 285.38 317.64 282.82 320.31
  Q 279.97 323.28 278.05 324.79
  A 3.08 3.08 0.0 0 1 274.51 324.96
  L 270.21 322.24
  A 0.65 0.64 -49.1 0 0 269.43 322.30
  L 260.67 330.26"
/>
<path stroke="#918f90" vector-effect="non-scaling-stroke" d="
  M 145.37 40.44
  Q 149.25 40.54 152.89 44.34
  A 0.44 0.44 0.0 0 0 153.65 44.09
  C 154.24 38.86 151.04 34.40 145.53 34.26
  C 140.01 34.13 136.59 38.42 136.92 43.67
  A 0.44 0.44 0.0 0 0 137.67 43.96
  Q 141.49 40.34 145.37 40.44"
/>
<path stroke="#918f90" vector-effect="non-scaling-stroke" d="
  M 186.75 43.94
  Q 190.47 45.06 192.98 49.70
  A 0.45 0.44 41.5 0 0 193.79 49.65
  C 195.75 44.76 193.82 39.59 188.53 38.00
  C 183.23 36.41 178.78 39.66 177.71 44.82
  A 0.45 0.44 -8.1 0 0 178.36 45.30
  Q 183.02 42.81 186.75 43.94"
/>
<path stroke="#918f90" vector-effect="non-scaling-stroke" d="
  M 104.33 47.68
  Q 107.96 46.27 112.80 48.38
  A 0.45 0.44 3.5 0 0 113.40 47.84
  C 111.93 42.78 107.23 39.90 102.07 41.91
  C 96.92 43.92 95.42 49.23 97.77 53.95
  A 0.45 0.44 -46.1 0 0 98.57 53.93
  Q 100.70 49.10 104.33 47.68"
/>
<path stroke="#918f90" vector-effect="non-scaling-stroke" d="
  M 224.07 56.95
  Q 227.51 58.76 229.08 63.78
  A 0.44 0.44 0.0 0 0 229.88 63.89
  C 232.73 59.47 231.83 54.05 226.95 51.48
  C 222.07 48.91 217.09 51.24 215.06 56.09
  A 0.44 0.44 0.0 0 0 215.60 56.69
  Q 220.63 55.14 224.07 56.95"
/>
<path stroke="#918f90" vector-effect="non-scaling-stroke" d="
  M 258.61 78.86
  Q 261.62 81.25 262.23 86.42
  A 0.44 0.44 0.0 0 0 262.98 86.67
  C 266.56 82.90 266.68 77.47 262.41 74.07
  C 258.14 70.69 252.87 72.04 250.01 76.38
  A 0.44 0.44 0.0 0 0 250.43 77.06
  Q 255.60 76.48 258.61 78.86"
/>
<path stroke="#918f90" vector-effect="non-scaling-stroke" d="
  M 284.57 109.95
  Q 286.81 113.13 285.92 118.32
  A 0.44 0.44 0.0 0 0 286.58 118.78
  C 291.13 116.14 292.80 110.91 289.62 106.39
  C 286.45 101.89 280.95 101.70 276.94 105.09
  A 0.44 0.44 0.0 0 0 277.15 105.87
  Q 282.34 106.78 284.57 109.95"
/>
<path stroke="#918f90" vector-effect="non-scaling-stroke" d="
  M 302.78 144.77
  Q 304.35 148.29 302.49 153.17
  A 0.44 0.44 0.0 0 0 303.05 153.75
  C 307.98 152.05 310.61 147.26 308.38 142.27
  C 306.14 137.27 300.83 136.03 296.27 138.58
  A 0.44 0.44 0.0 0 0 296.33 139.37
  Q 301.20 141.25 302.78 144.77"
/>
<path stroke="#918f90" vector-effect="non-scaling-stroke" d="
  M 311.51 183.68
  Q 311.80 187.56 308.37 191.56
  A 0.44 0.44 0.0 0 0 308.71 192.29
  C 313.96 192.36 318.08 188.72 317.67 183.22
  C 317.26 177.72 312.64 174.74 307.45 175.59
  A 0.44 0.44 0.0 0 0 307.23 176.37
  Q 311.22 179.81 311.51 183.68"
/>
<path stroke="#918f90" vector-effect="non-scaling-stroke" d="
  M 309.97 221.58
  Q 309.14 225.42 304.66 228.33
  A 0.45 0.45 0.0 0 0 304.77 229.13
  C 309.86 230.71 314.91 228.36 316.09 222.89
  C 317.27 217.43 313.64 213.21 308.35 212.55
  A 0.45 0.45 0.0 0 0 307.92 213.24
  Q 310.80 217.73 309.97 221.58"
/>
<path stroke="#918f90" vector-effect="non-scaling-stroke" d="
  M 299.33 259.70
  Q 297.68 263.17 292.77 264.95
  A 0.44 0.44 0.0 0 0 292.70 265.74
  C 297.20 268.37 302.53 267.25 304.86 262.31
  C 307.20 257.37 304.68 252.54 299.79 250.74
  A 0.44 0.44 0.0 0 0 299.22 251.29
  Q 300.97 256.21 299.33 259.70"
/>
<path stroke="#918f90" vector-effect="non-scaling-stroke" d="
  M 280.90 293.65
  Q 278.09 296.34 272.83 296.25
  A 0.44 0.44 0.0 0 0 272.47 296.97
  C 275.77 301.07 281.20 301.93 285.18 298.10
  C 289.16 294.28 288.51 288.82 284.55 285.37
  A 0.44 0.44 0.0 0 0 283.81 285.69
  Q 283.69 290.96 280.90 293.65"
/>
<path stroke="#918f90" vector-effect="non-scaling-stroke" d="
  M 253.02 321.98
  Q 250.07 324.51 244.82 324.12
  A 0.44 0.44 0.0 0 0 244.43 324.82
  C 247.48 329.10 252.86 330.26 257.04 326.67
  C 261.23 323.08 260.89 317.59 257.13 313.92
  A 0.44 0.44 0.0 0 0 256.37 314.20
  Q 255.96 319.45 253.02 321.98"
/>
<path stroke="#918f90" vector-effect="non-scaling-stroke" d="
  M 217.25 343.21
  Q 213.68 344.48 209.03 342.29
  A 0.43 0.43 0.0 0 0 208.42 342.79
  C 209.71 347.76 214.20 350.70 219.27 348.90
  C 224.35 347.09 225.97 341.97 223.82 337.30
  A 0.43 0.43 0.0 0 0 223.04 337.30
  Q 220.82 341.94 217.25 343.21"
/>
<path stroke="#918f90" vector-effect="non-scaling-stroke" d="
  M 178.75 354.67
  Q 175.02 355.41 170.73 352.54
  A 0.44 0.43 13.7 0 0 170.05 352.95
  C 170.60 358.07 174.61 361.65 179.91 360.61
  C 185.22 359.57 187.58 354.73 186.14 349.79
  A 0.44 0.43 -35.9 0 0 185.37 349.66
  Q 182.48 353.94 178.75 354.67"
/>
<path stroke="#918f90" vector-effect="non-scaling-stroke" d="
  M 137.50 355.91
  Q 133.71 355.80 130.18 352.06
  A 0.43 0.43 0.0 0 0 129.43 352.30
  C 128.82 357.41 131.93 361.78 137.32 361.95
  C 142.70 362.11 146.07 357.94 145.78 352.81
  A 0.43 0.43 0.0 0 0 145.05 352.52
  Q 141.29 356.03 137.50 355.91"
/>
<path stroke="#892422" vector-effect="non-scaling-stroke" d="
  M 98.13 135.87
  Q 95.19 135.44 92.76 134.25
  C 88.00 131.92 84.12 131.17 80.00 134.35
  A 3.57 3.37 -87.9 0 0 79.39 134.95
  Q 73.79 142.23 72.21 143.97
  Q 69.11 147.37 62.65 151.76
  A 0.34 0.33 37.5 0 0 62.73 152.35
  C 64.44 152.95 66.09 151.45 67.83 151.46
  C 73.18 151.49 78.58 152.43 82.06 148.50
  C 84.52 145.72 84.26 141.25 87.05 138.79
  C 89.47 136.66 93.97 136.57 98.13 135.87"
/>
<path stroke="#918f90" vector-effect="non-scaling-stroke" d="
  M 39.14 252.23
  C 40.05 254.24 39.44 259.17 39.26 264.29
  A 0.45 0.44 73.3 0 0 39.96 264.67
  Q 45.13 260.98 46.86 255.17
  C 48.97 248.11 43.62 242.60 39.23 237.84
  A 2.91 2.64 -2.7 0 0 38.66 237.37
  Q 35.45 235.38 32.69 236.28
  C 28.26 237.75 23.86 238.63 21.81 240.63
  A 0.44 0.44 0.0 0 0 22.15 241.38
  Q 25.79 241.09 29.22 242.97
  A 0.69 0.69 0.0 0 1 29.12 244.22
  Q 23.23 246.37 24.67 252.72
  A 4.00 3.73 -67.7 0 0 25.04 253.70
  Q 26.76 256.77 27.08 257.14
  C 31.94 262.68 39.13 259.33 38.86 252.30
  A 0.15 0.15 0.0 0 1 39.14 252.23"
/>
</g>
<path fill="#231f20" d="
  M 307.03 288.23
  Q 306.16 290.64 302.77 290.09
  Q 299.95 289.63 298.37 288.92
  A 0.74 0.74 0.0 0 0 297.45 289.18
  C 294.04 294.09 292.54 295.76 289.11 300.84
  Q 286.09 305.32 280.70 310.64
  A 0.85 0.85 0.0 0 0 280.63 311.78
  C 282.47 314.09 285.38 317.64 282.82 320.31
  Q 279.97 323.28 278.05 324.79
  A 3.08 3.08 0.0 0 1 274.51 324.96
  L 270.21 322.24
  A 0.65 0.64 -49.1 0 0 269.43 322.30
  L 260.67 330.26
  L 250.61 337.35
  A 0.97 0.97 0.0 0 0 250.25 338.43
  L 251.80 343.23
  A 1.67 1.42 40.3 0 1 251.85 343.53
  C 252.13 347.51 248.50 349.29 245.45 350.98
  A 1.87 1.83 31.1 0 1 244.48 351.21
  C 241.37 351.09 239.56 348.83 237.37 346.65
  A 0.81 0.79 -36.7 0 0 236.42 346.52
  Q 222.98 353.79 211.92 357.73
  A 1.20 1.19 75.0 0 0 211.15 359.08
  Q 212.04 363.95 210.07 365.74
  A 2.11 2.09 13.7 0 1 209.39 366.15
  C 204.14 368.20 200.76 369.58 197.60 363.09
  A 0.70 0.70 0.0 0 0 196.79 362.72
  Q 182.43 366.48 169.13 367.67
  A 1.20 1.19 -2.6 0 0 168.04 368.86
  Q 168.02 373.75 164.86 374.73
  A 0.82 0.75 33.4 0 1 164.61 374.77
  L 158.84 375.00
  A 3.36 3.35 78.0 0 1 155.60 372.89
  L 154.02 368.94
  A 0.80 0.78 -11.2 0 0 153.27 368.45
  Q 138.36 368.88 127.16 367.61
  A 1.45 1.43 -74.1 0 0 125.71 368.43
  C 123.60 372.94 120.08 371.32 115.98 370.33
  A 2.45 2.44 -18.6 0 1 115.01 369.85
  Q 113.46 368.59 113.54 366.38
  A 0.66 0.65 9.1 0 0 113.06 365.73
  L 95.72 361.09
  A 0.66 0.65 7.1 0 1 95.23 360.47
  L 93.80 308.07
  A 0.24 0.24 0.0 0 1 94.20 307.89
  Q 94.66 308.34 105.73 313.17
  Q 119.87 319.35 136.62 322.34
  C 160.14 326.54 186.03 322.03 208.05 311.53
  Q 208.27 311.43 216.80 306.82
  Q 221.80 304.11 225.10 301.40
  C 228.19 298.86 232.86 296.11 236.62 292.48
  Q 245.49 283.94 249.16 280.01
  A 5.17 4.89 -9.7 0 0 249.88 279.05
  L 250.95 277.16
  A 1.86 1.37 -66.5 0 1 251.10 276.95
  Q 257.49 269.29 262.60 260.88
  Q 262.87 260.42 263.01 259.51
  A 3.95 3.90 -26.2 0 1 263.47 258.19
  Q 270.55 245.73 274.54 232.03
  Q 275.97 227.10 276.42 222.85
  Q 276.80 219.27 277.55 213.53
  Q 279.48 198.94 277.59 184.38
  Q 277.29 182.13 276.43 174.80
  Q 275.88 170.05 274.47 165.35
  Q 270.35 151.61 263.48 139.65
  A 3.40 3.27 -65.7 0 1 263.08 138.53
  Q 262.91 137.52 262.56 136.94
  Q 257.72 129.03 251.77 121.98
  Q 251.23 121.35 249.73 118.95
  A 5.88 5.67 -83.8 0 0 249.15 118.20
  Q 243.48 112.12 237.88 107.37
  Q 237.62 107.15 236.92 106.20
  A 4.91 4.64 89.3 0 0 236.02 105.27
  C 231.32 101.54 227.06 98.94 222.76 95.60
  Q 221.42 94.56 218.12 92.88
  C 214.76 91.16 209.40 88.08 205.14 86.32
  Q 165.12 69.80 122.25 80.28
  Q 99.93 85.74 81.17 98.21
  Q 78.94 99.69 68.77 107.51
  Q 66.36 109.36 65.42 110.93
  A 0.49 0.43 86.4 0 1 65.35 111.02
  L 56.19 120.28
  A 0.44 0.43 50.4 0 1 55.52 120.21
  L 51.99 115.01
  A 0.98 0.93 -88.6 0 0 51.80 114.80
  Q 43.26 107.57 35.34 105.64
  C 23.56 102.77 12.19 104.40 0.62 107.59
  A 0.34 0.34 0.0 0 1 0.28 107.04
  Q 7.09 99.39 12.42 94.65
  Q 13.33 93.84 13.87 93.39
  Q 19.46 88.75 26.19 84.66
  Q 29.50 82.65 34.20 81.40
  A 0.24 0.24 0.0 0 0 34.15 80.93
  L 26.90 80.48
  A 0.64 0.64 0.0 0 1 26.39 79.52
  C 29.58 74.13 34.13 70.74 38.18 67.18
  Q 41.12 64.60 44.12 62.71
  Q 55.66 55.46 55.69 55.44
  Q 67.93 48.71 77.80 44.08
  A 1.66 1.64 -88.0 0 0 78.55 43.37
  L 80.68 39.33
  A 0.89 0.89 0.0 0 1 81.43 38.86
  L 91.27 38.46
  A 7.81 7.75 -53.4 0 0 93.06 38.19
  Q 106.54 34.56 118.82 33.10
  A 0.92 0.91 -89.2 0 0 119.62 32.32
  C 120.17 28.35 120.17 26.18 124.56 25.64
  Q 127.42 25.29 129.97 24.79
  A 1.69 1.66 -33.0 0 1 131.25 25.05
  Q 134.34 27.16 134.95 31.08
  A 0.48 0.48 0.0 0 0 135.46 31.48
  Q 153.44 30.13 171.42 31.41
  A 0.14 0.14 0.0 0 0 171.57 31.28
  A 0.17 0.17 0.0 0 0 171.42 31.15
  L 163.85 30.69
  A 1.20 1.20 0.0 0 1 162.91 28.85
  L 164.85 25.78
  A 3.65 3.65 0.0 0 1 167.80 24.09
  Q 170.36 23.98 174.26 24.46
  C 177.91 24.91 178.19 28.29 178.56 31.89
  A 0.67 0.66 -89.5 0 0 179.13 32.48
  Q 192.75 34.50 205.73 38.67
  A 0.63 0.61 -67.7 0 0 206.47 38.35
  Q 207.82 35.64 209.95 34.00
  A 3.02 3.01 34.9 0 1 212.71 33.51
  C 215.11 34.28 220.70 35.61 221.31 38.27
  Q 221.92 40.99 220.91 43.77
  A 0.41 0.41 0.0 0 0 221.12 44.29
  C 228.02 47.66 233.62 49.72 238.51 53.27
  Q 238.90 53.55 243.45 56.10
  A 0.70 0.70 0.0 0 0 244.30 55.98
  C 246.35 53.83 249.14 50.93 251.90 52.63
  Q 255.42 54.81 257.14 56.04
  A 2.69 2.65 -0.5 0 1 257.76 56.64
  C 259.58 59.09 257.90 61.54 256.71 64.72
  A 0.67 0.67 0.0 0 0 257.09 65.58
  Q 258.13 65.98 263.39 70.65
  C 269.44 76.02 274.60 79.85 276.46 82.91
  A 0.49 0.48 -34.4 0 0 277.17 83.04
  C 278.71 81.82 282.21 80.19 284.73 80.72
  A 2.06 2.05 -19.7 0 1 285.56 81.11
  Q 289.18 83.98 290.35 87.88
  A 2.25 2.21 -49.5 0 1 290.42 88.88
  Q 289.85 92.30 287.69 94.34
  A 0.67 0.65 -39.7 0 0 287.60 95.20
  L 302.29 116.58
  A 0.74 0.73 -30.4 0 0 303.22 116.82
  Q 306.73 115.11 310.03 116.56
  A 1.60 1.59 -2.3 0 1 310.79 117.26
  L 313.99 123.15
  A 3.13 3.13 0.0 0 1 313.39 126.92
  L 309.64 130.48
  A 0.77 0.76 57.3 0 0 309.46 131.33
  L 315.72 146.49
  A 0.57 0.33 -75.1 0 1 315.75 146.60
  L 317.21 154.03
  A 1.29 1.29 0.0 0 0 318.67 155.05
  Q 321.61 154.60 324.57 155.49
  A 3.72 3.69 0.6 0 1 327.06 158.02
  Q 327.76 160.47 328.27 163.28
  C 328.93 166.92 324.91 168.65 321.96 169.39
  A 0.86 0.86 0.0 0 0 321.33 170.39
  Q 323.95 183.30 324.09 195.91
  A 0.76 0.76 0.0 0 0 324.76 196.65
  Q 329.52 197.23 331.26 200.19
  A 1.64 1.57 -59.7 0 1 331.48 201.11
  L 331.07 207.76
  A 1.57 1.49 -25.8 0 1 330.76 208.58
  C 328.87 211.12 327.07 211.01 324.39 211.42
  A 0.67 0.66 -1.7 0 0 323.83 212.01
  Q 322.13 227.47 320.47 233.55
  Q 319.84 235.86 319.75 236.71
  A 0.72 0.71 -77.3 0 0 320.21 237.45
  C 322.92 238.48 325.55 239.74 325.99 242.62
  A 1.71 1.61 50.8 0 1 325.94 243.32
  L 324.28 248.82
  A 3.67 3.65 -1.5 0 1 321.98 251.23
  Q 319.64 252.05 317.04 251.49
  A 1.16 1.15 15.4 0 0 315.71 252.24
  C 312.90 260.15 309.28 267.69 305.36 275.23
  A 0.65 0.64 -57.2 0 0 305.53 276.04
  Q 308.31 278.25 308.99 278.99
  Q 312.30 282.55 307.03 288.23
  Z
  M 172.7506 31.9345
  A 2.65 0.20 -178.8 0 0 175.3958 32.1900
  A 2.65 0.20 -178.8 0 0 178.0494 32.0455
  A 2.65 0.20 -178.8 0 0 175.4042 31.7900
  A 2.65 0.20 -178.8 0 0 172.7506 31.9345
  Z
  M 145.37 40.44
  Q 149.25 40.54 152.89 44.34
  A 0.44 0.44 0.0 0 0 153.65 44.09
  C 154.24 38.86 151.04 34.40 145.53 34.26
  C 140.01 34.13 136.59 38.42 136.92 43.67
  A 0.44 0.44 0.0 0 0 137.67 43.96
  Q 141.49 40.34 145.37 40.44
  Z
  M 186.75 43.94
  Q 190.47 45.06 192.98 49.70
  A 0.45 0.44 41.5 0 0 193.79 49.65
  C 195.75 44.76 193.82 39.59 188.53 38.00
  C 183.23 36.41 178.78 39.66 177.71 44.82
  A 0.45 0.44 -8.1 0 0 178.36 45.30
  Q 183.02 42.81 186.75 43.94
  Z
  M 104.33 47.68
  Q 107.96 46.27 112.80 48.38
  A 0.45 0.44 3.5 0 0 113.40 47.84
  C 111.93 42.78 107.23 39.90 102.07 41.91
  C 96.92 43.92 95.42 49.23 97.77 53.95
  A 0.45 0.44 -46.1 0 0 98.57 53.93
  Q 100.70 49.10 104.33 47.68
  Z
  M 224.07 56.95
  Q 227.51 58.76 229.08 63.78
  A 0.44 0.44 0.0 0 0 229.88 63.89
  C 232.73 59.47 231.83 54.05 226.95 51.48
  C 222.07 48.91 217.09 51.24 215.06 56.09
  A 0.44 0.44 0.0 0 0 215.60 56.69
  Q 220.63 55.14 224.07 56.95
  Z
  M 258.61 78.86
  Q 261.62 81.25 262.23 86.42
  A 0.44 0.44 0.0 0 0 262.98 86.67
  C 266.56 82.90 266.68 77.47 262.41 74.07
  C 258.14 70.69 252.87 72.04 250.01 76.38
  A 0.44 0.44 0.0 0 0 250.43 77.06
  Q 255.60 76.48 258.61 78.86
  Z
  M 284.57 109.95
  Q 286.81 113.13 285.92 118.32
  A 0.44 0.44 0.0 0 0 286.58 118.78
  C 291.13 116.14 292.80 110.91 289.62 106.39
  C 286.45 101.89 280.95 101.70 276.94 105.09
  A 0.44 0.44 0.0 0 0 277.15 105.87
  Q 282.34 106.78 284.57 109.95
  Z
  M 302.78 144.77
  Q 304.35 148.29 302.49 153.17
  A 0.44 0.44 0.0 0 0 303.05 153.75
  C 307.98 152.05 310.61 147.26 308.38 142.27
  C 306.14 137.27 300.83 136.03 296.27 138.58
  A 0.44 0.44 0.0 0 0 296.33 139.37
  Q 301.20 141.25 302.78 144.77
  Z
  M 311.51 183.68
  Q 311.80 187.56 308.37 191.56
  A 0.44 0.44 0.0 0 0 308.71 192.29
  C 313.96 192.36 318.08 188.72 317.67 183.22
  C 317.26 177.72 312.64 174.74 307.45 175.59
  A 0.44 0.44 0.0 0 0 307.23 176.37
  Q 311.22 179.81 311.51 183.68
  Z
  M 309.97 221.58
  Q 309.14 225.42 304.66 228.33
  A 0.45 0.45 0.0 0 0 304.77 229.13
  C 309.86 230.71 314.91 228.36 316.09 222.89
  C 317.27 217.43 313.64 213.21 308.35 212.55
  A 0.45 0.45 0.0 0 0 307.92 213.24
  Q 310.80 217.73 309.97 221.58
  Z
  M 299.33 259.70
  Q 297.68 263.17 292.77 264.95
  A 0.44 0.44 0.0 0 0 292.70 265.74
  C 297.20 268.37 302.53 267.25 304.86 262.31
  C 307.20 257.37 304.68 252.54 299.79 250.74
  A 0.44 0.44 0.0 0 0 299.22 251.29
  Q 300.97 256.21 299.33 259.70
  Z
  M 280.90 293.65
  Q 278.09 296.34 272.83 296.25
  A 0.44 0.44 0.0 0 0 272.47 296.97
  C 275.77 301.07 281.20 301.93 285.18 298.10
  C 289.16 294.28 288.51 288.82 284.55 285.37
  A 0.44 0.44 0.0 0 0 283.81 285.69
  Q 283.69 290.96 280.90 293.65
  Z
  M 253.02 321.98
  Q 250.07 324.51 244.82 324.12
  A 0.44 0.44 0.0 0 0 244.43 324.82
  C 247.48 329.10 252.86 330.26 257.04 326.67
  C 261.23 323.08 260.89 317.59 257.13 313.92
  A 0.44 0.44 0.0 0 0 256.37 314.20
  Q 255.96 319.45 253.02 321.98
  Z
  M 217.25 343.21
  Q 213.68 344.48 209.03 342.29
  A 0.43 0.43 0.0 0 0 208.42 342.79
  C 209.71 347.76 214.20 350.70 219.27 348.90
  C 224.35 347.09 225.97 341.97 223.82 337.30
  A 0.43 0.43 0.0 0 0 223.04 337.30
  Q 220.82 341.94 217.25 343.21
  Z
  M 178.75 354.67
  Q 175.02 355.41 170.73 352.54
  A 0.44 0.43 13.7 0 0 170.05 352.95
  C 170.60 358.07 174.61 361.65 179.91 360.61
  C 185.22 359.57 187.58 354.73 186.14 349.79
  A 0.44 0.43 -35.9 0 0 185.37 349.66
  Q 182.48 353.94 178.75 354.67
  Z
  M 137.50 355.91
  Q 133.71 355.80 130.18 352.06
  A 0.43 0.43 0.0 0 0 129.43 352.30
  C 128.82 357.41 131.93 361.78 137.32 361.95
  C 142.70 362.11 146.07 357.94 145.78 352.81
  A 0.43 0.43 0.0 0 0 145.05 352.52
  Q 141.29 356.03 137.50 355.91
  Z"
/>
<path fill="#ffffff" d="
  M 145.37 40.44
  Q 141.49 40.34 137.67 43.96
  A 0.44 0.44 0.0 0 1 136.92 43.67
  C 136.59 38.42 140.01 34.13 145.53 34.26
  C 151.04 34.40 154.24 38.86 153.65 44.09
  A 0.44 0.44 0.0 0 1 152.89 44.34
  Q 149.25 40.54 145.37 40.44
  Z"
/>
<path fill="#ffffff" d="
  M 188.53 38.00
  C 193.82 39.59 195.75 44.76 193.79 49.65
  A 0.45 0.44 41.5 0 1 192.98 49.70
  Q 190.47 45.06 186.75 43.94
  Q 183.02 42.81 178.36 45.30
  A 0.45 0.44 -8.1 0 1 177.71 44.82
  C 178.78 39.66 183.23 36.41 188.53 38.00
  Z"
/>
<path fill="#ffffff" d="
  M 104.33 47.68
  Q 100.70 49.10 98.57 53.93
  A 0.45 0.44 -46.1 0 1 97.77 53.95
  C 95.42 49.23 96.92 43.92 102.07 41.91
  C 107.23 39.90 111.93 42.78 113.40 47.84
  A 0.45 0.44 3.5 0 1 112.80 48.38
  Q 107.96 46.27 104.33 47.68
  Z"
/>
<path fill="#ffffff" d="
  M 224.07 56.95
  Q 220.63 55.14 215.60 56.69
  A 0.44 0.44 0.0 0 1 215.06 56.09
  C 217.09 51.24 222.07 48.91 226.95 51.48
  C 231.83 54.05 232.73 59.47 229.88 63.89
  A 0.44 0.44 0.0 0 1 229.08 63.78
  Q 227.51 58.76 224.07 56.95
  Z"
/>
<path fill="#231f20" d="
  M 407.00 147.58
  Q 407.86 146.43 408.13 144.37
  A 2.72 2.68 -24.5 0 1 408.59 143.16
  C 411.98 138.22 415.29 135.46 420.11 131.83
  Q 422.86 129.76 425.32 128.74
  Q 432.55 125.74 436.25 125.09
  Q 452.59 122.24 469.50 127.55
  A 20.09 19.92 69.6 0 1 474.29 129.77
  Q 477.06 131.55 478.64 132.64
  Q 484.81 136.92 486.29 139.29
  Q 487.47 141.19 490.71 146.42
  C 493.55 150.99 495.84 157.78 497.01 163.82
  Q 499.47 176.50 499.57 191.51
  Q 499.68 209.22 499.61 274.19
  A 0.27 0.26 -90.0 0 1 499.35 274.46
  L 455.84 274.46
  A 0.46 0.45 90.0 0 1 455.39 274.00
  Q 455.39 271.34 455.38 202.75
  Q 455.38 193.32 454.52 186.02
  Q 453.31 175.81 446.91 168.70
  C 442.68 164.00 433.90 163.62 427.66 164.30
  C 420.15 165.12 414.22 169.50 410.34 175.89
  Q 408.16 179.48 407.50 186.47
  Q 406.50 197.20 406.46 201.50
  Q 406.45 202.44 406.45 274.20
  A 0.26 0.26 0.0 0 1 406.19 274.46
  L 362.57 274.46
  A 0.26 0.26 0.0 0 1 362.31 274.20
  L 362.31 68.82
  A 0.44 0.44 0.0 0 1 362.75 68.38
  L 405.82 68.38
  A 0.63 0.63 0.0 0 1 406.45 69.01
  L 406.45 147.39
  A 0.31 0.31 0.0 0 0 407.00 147.58
  Z"
/>
<path fill="#ffffff" d="
  M 258.61 78.86
  Q 255.60 76.48 250.43 77.06
  A 0.44 0.44 0.0 0 1 250.01 76.38
  C 252.87 72.04 258.14 70.69 262.41 74.07
  C 266.68 77.47 266.56 82.90 262.98 86.67
  A 0.44 0.44 0.0 0 1 262.23 86.42
  Q 261.62 81.25 258.61 78.86
  Z"
/>
<path fill="#231f20" d="
  M 118.75 260.30
  Q 118.88 262.67 118.21 264.98
  Q 112.84 283.38 107.66 301.58
  A 0.36 0.35 -70.8 0 0 107.86 302.01
  L 112.71 304.11
  A 0.39 0.39 0.0 0 0 113.24 303.84
  L 126.21 249.30
  A 4.05 4.01 68.2 0 1 126.76 248.00
  L 136.06 233.65
  A 0.75 0.71 66.4 0 0 136.17 233.34
  L 139.08 212.06
  A 0.14 0.13 -83.1 0 1 139.22 211.94
  L 139.23 211.94
  A 0.06 0.05 10.2 0 1 139.28 212.00
  L 137.08 310.65
  A 0.32 0.31 7.7 0 0 137.33 310.97
  L 142.50 312.23
  A 0.19 0.18 -82.8 0 0 142.73 312.05
  L 143.14 214.70
  A 0.31 0.31 0.0 0 1 143.69 214.50
  Q 143.87 214.72 144.65 220.95
  Q 145.00 223.80 145.76 227.00
  Q 156.47 271.81 157.43 275.70
  C 158.03 278.09 157.88 280.69 158.45 283.05
  Q 162.16 298.46 165.14 310.92
  A 0.96 0.96 0.0 0 0 166.11 311.66
  L 170.64 311.54
  A 0.86 0.86 0.0 0 0 171.44 310.42
  Q 171.34 310.13 170.96 308.51
  Q 170.05 304.65 158.83 263.38
  Q 158.04 260.48 157.81 257.24
  A 4.45 4.24 -56.1 0 0 157.66 256.36
  L 147.18 217.56
  A 0.16 0.16 0.0 0 1 147.48 217.44
  L 157.70 235.82
  A 1.40 1.31 24.7 0 1 157.81 236.09
  L 158.22 237.72
  A 3.28 3.23 -67.2 0 0 158.56 238.57
  Q 163.03 246.53 170.32 259.52
  C 171.06 260.84 171.28 261.90 171.71 263.14
  A 3.17 2.22 69.1 0 0 171.89 263.55
  L 194.35 304.94
  A 0.38 0.38 0.0 0 0 194.87 305.09
  L 200.06 302.28
  A 0.30 0.29 -34.7 0 0 200.15 301.83
  Q 197.90 299.15 197.02 295.98
  A 4.21 3.81 -70.8 0 0 196.63 295.06
  L 171.93 252.72
  A 2.91 2.64 23.8 0 1 171.69 252.18
  Q 171.03 250.21 170.77 249.73
  Q 169.05 246.61 158.91 229.89
  C 157.97 228.34 157.83 226.66 156.79 225.06
  Q 155.27 222.75 153.85 220.16
  A 0.09 0.09 0.0 0 1 153.99 220.05
  Q 156.80 222.41 158.54 225.25
  A 3.91 3.90 -83.6 0 0 159.16 226.03
  Q 166.74 233.71 170.37 237.38
  Q 170.89 237.90 171.54 239.09
  A 4.00 3.87 -82.8 0 0 172.14 239.89
  Q 179.51 247.44 183.81 251.77
  Q 184.14 252.10 184.90 253.42
  A 4.14 3.98 8.9 0 0 185.50 254.21
  Q 186.03 254.76 196.45 265.31
  Q 196.80 265.67 197.60 267.05
  A 1.44 1.23 13.9 0 0 197.80 267.33
  L 220.54 291.32
  A 0.96 0.96 0.0 0 0 221.91 291.35
  L 225.10 288.24
  A 0.44 0.44 0.0 0 0 224.91 287.50
  C 224.47 287.38 223.09 285.09 222.22 284.23
  Q 221.01 283.02 211.58 273.82
  Q 211.20 273.44 210.11 271.81
  A 4.91 4.18 -88.8 0 0 209.45 271.00
  Q 201.78 263.53 198.00 259.75
  Q 197.46 259.21 196.71 257.86
  A 0.59 0.51 -86.2 0 0 196.58 257.69
  L 185.67 246.95
  A 4.59 4.59 0.0 0 1 185.13 246.30
  Q 183.95 244.60 183.58 244.23
  Q 173.22 234.07 171.85 232.65
  Q 171.48 232.27 171.12 231.45
  A 1.53 1.47 11.5 0 0 170.77 230.94
  L 158.35 218.71
  A 0.14 0.14 0.0 0 1 158.53 218.49
  L 236.49 268.50
  A 1.57 1.35 10.1 0 1 236.66 268.63
  Q 239.26 271.03 242.64 272.67
  A 0.33 0.32 35.0 0 0 243.01 272.61
  L 246.98 268.84
  A 0.20 0.20 0.0 0 0 246.95 268.52
  L 165.45 216.86
  A 0.06 0.06 0.0 0 1 165.50 216.75
  L 258.01 249.99
  A 0.34 0.34 0.0 0 0 258.40 249.85
  L 262.50 243.38
  A 0.09 0.09 0.0 0 0 262.44 243.25
  Q 260.07 242.90 253.05 240.72
  Q 215.25 229.00 193.62 222.12
  Q 181.27 218.19 170.88 215.07
  A 0.32 0.32 0.0 0 1 170.99 214.45
  L 268.52 221.43
  A 0.31 0.30 -83.2 0 0 268.85 221.16
  L 269.32 217.40
  A 0.21 0.20 -86.0 0 0 269.13 217.17
  L 169.05 210.96
  A 0.13 0.04 -3.6 0 1 168.95 210.94
  Q 168.92 210.92 168.91 210.91
  A 0.16 0.15 57.5 0 1 168.97 210.63
  L 270.05 194.86
  A 0.21 0.21 0.0 0 0 270.23 194.64
  L 270.09 189.60
  A 0.35 0.35 0.0 0 0 269.69 189.26
  L 173.78 205.61
  A 0.16 0.16 0.0 0 1 173.70 205.31
  Q 180.36 202.89 186.41 200.21
  Q 187.06 199.92 220.62 185.86
  Q 246.22 175.14 247.64 174.64
  Q 249.79 173.87 251.59 172.75
  A 0.05 0.03 13.3 0 1 251.62 172.74
  L 264.53 167.61
  A 0.32 0.31 -22.1 0 0 264.71 167.20
  L 262.59 161.89
  A 0.35 0.35 0.0 0 0 262.12 161.71
  L 158.36 209.65
  A 1.12 1.11 38.2 0 1 157.65 209.73
  L 147.14 207.49
  A 0.34 0.34 0.0 0 1 147.05 206.86
  C 149.97 205.33 155.78 201.64 158.70 198.67
  Q 158.79 198.57 165.00 193.50
  Q 166.16 192.54 170.29 188.46
  A 3.79 3.79 0.0 0 0 170.86 187.73
  Q 172.14 185.54 174.07 183.09
  Q 181.37 173.83 179.71 162.26
  A 0.22 0.22 0.0 0 0 179.27 162.28
  Q 178.79 168.92 175.73 174.78
  Q 172.82 180.36 170.31 184.06
  Q 168.67 186.47 164.15 190.17
  Q 156.78 196.19 148.91 200.31
  Q 148.57 200.49 141.28 204.44
  C 137.77 206.35 133.99 208.00 130.67 210.04
  C 126.55 212.58 122.35 214.37 117.53 217.49
  C 113.99 219.79 108.87 222.37 104.58 225.73
  C 100.74 228.73 96.17 231.43 93.03 235.63
  A 3.21 3.20 71.5 0 0 92.53 236.64
  Q 90.88 242.55 93.05 246.98
  Q 94.35 249.64 94.08 250.47
  A 6.79 1.25 -73.4 0 0 93.79 251.38
  Q 93.78 251.42 92.09 254.17
  A 3.81 3.77 -6.1 0 1 91.47 254.93
  Q 87.68 258.53 83.95 261.90
  Q 81.07 264.52 76.42 269.45
  Q 72.35 273.76 68.21 276.19
  C 63.95 278.69 57.97 276.29 53.68 274.02
  C 49.35 271.72 43.79 269.68 39.86 271.59
  C 36.80 273.07 33.76 274.14 30.26 273.51
  Q 28.17 273.14 25.38 270.73
  Q 18.61 264.87 14.47 258.51
  C 12.30 255.18 12.80 246.75 13.17 244.08
  Q 13.58 241.06 15.55 235.73
  Q 19.89 223.97 24.93 211.56
  C 26.00 208.93 26.51 205.96 27.38 203.89
  Q 32.94 190.68 37.74 180.32
  Q 39.13 177.32 40.02 174.19
  C 40.75 171.66 42.45 168.99 43.42 166.13
  Q 45.01 161.45 48.14 153.85
  A 6.09 6.02 55.8 0 0 48.59 151.41
  L 48.37 143.42
  A 4.80 4.80 0.0 0 1 49.12 140.71
  Q 52.37 135.62 53.62 132.39
  A 2.78 2.68 -15.7 0 1 54.07 131.62
  L 65.18 118.41
  A 1.32 1.13 85.6 0 0 65.29 118.26
  Q 66.21 116.75 66.76 116.27
  Q 72.31 111.35 73.79 110.28
  Q 78.32 106.99 79.36 105.82
  A 2.94 2.52 0.5 0 1 79.94 105.33
  Q 90.80 98.58 96.22 96.01
  Q 117.16 86.07 142.49 83.91
  Q 177.30 80.94 208.32 97.22
  Q 210.12 98.17 218.76 103.42
  Q 221.85 105.30 224.99 107.93
  C 228.14 110.58 233.18 113.95 236.47 117.57
  Q 239.00 120.35 240.65 122.00
  C 243.85 125.19 248.38 129.73 250.89 134.28
  Q 251.60 135.54 254.07 138.92
  Q 257.54 143.64 262.70 153.36
  Q 263.03 153.99 263.18 155.41
  A 3.47 3.39 30.3 0 0 263.46 156.43
  Q 277.28 186.57 271.92 218.78
  Q 269.77 231.70 263.55 245.24
  C 263.08 246.26 263.13 247.48 262.67 248.43
  Q 260.24 253.48 256.47 258.99
  Q 250.45 267.77 248.97 269.97
  Q 247.31 272.44 238.56 280.90
  A 11.41 10.73 -5.4 0 0 237.51 282.09
  C 235.00 285.40 230.06 288.62 223.87 293.27
  C 219.99 296.19 215.37 298.55 212.66 300.16
  Q 207.39 303.29 204.21 304.52
  C 200.27 306.04 196.30 307.95 192.41 309.18
  Q 150.98 322.34 110.21 306.85
  C 105.68 305.13 102.94 303.49 97.49 300.80
  A 0.72 0.72 0.0 0 1 97.18 299.81
  L 118.75 260.30
  Z
  M 98.13 135.87
  Q 95.19 135.44 92.76 134.25
  C 88.00 131.92 84.12 131.17 80.00 134.35
  A 3.57 3.37 -87.9 0 0 79.39 134.95
  Q 73.79 142.23 72.21 143.97
  Q 69.11 147.37 62.65 151.76
  A 0.34 0.33 37.5 0 0 62.73 152.35
  C 64.44 152.95 66.09 151.45 67.83 151.46
  C 73.18 151.49 78.58 152.43 82.06 148.50
  C 84.52 145.72 84.26 141.25 87.05 138.79
  C 89.47 136.66 93.97 136.57 98.13 135.87
  Z
  M 39.14 252.23
  C 40.05 254.24 39.44 259.17 39.26 264.29
  A 0.45 0.44 73.3 0 0 39.96 264.67
  Q 45.13 260.98 46.86 255.17
  C 48.97 248.11 43.62 242.60 39.23 237.84
  A 2.91 2.64 -2.7 0 0 38.66 237.37
  Q 35.45 235.38 32.69 236.28
  C 28.26 237.75 23.86 238.63 21.81 240.63
  A 0.44 0.44 0.0 0 0 22.15 241.38
  Q 25.79 241.09 29.22 242.97
  A 0.69 0.69 0.0 0 1 29.12 244.22
  Q 23.23 246.37 24.67 252.72
  A 4.00 3.73 -67.7 0 0 25.04 253.70
  Q 26.76 256.77 27.08 257.14
  C 31.94 262.68 39.13 259.33 38.86 252.30
  A 0.15 0.15 0.0 0 1 39.14 252.23
  Z"
/>
<path fill="#ffffff" d="
  M 284.57 109.95
  Q 282.34 106.78 277.15 105.87
  A 0.44 0.44 0.0 0 1 276.94 105.09
  C 280.95 101.70 286.45 101.89 289.62 106.39
  C 292.80 110.91 291.13 116.14 286.58 118.78
  A 0.44 0.44 0.0 0 1 285.92 118.32
  Q 286.81 113.13 284.57 109.95
  Z"
/>
<path fill="#ee2824" d="
  M 1171.61 330.44
  L 1128.19 330.44
  A 0.33 0.32 0.0 0 1 1127.86 330.12
  L 1127.86 126.18
  A 0.28 0.28 0.0 0 1 1128.14 125.90
  L 1168.50 125.90
  A 0.58 0.58 0.0 0 1 1169.08 126.48
  L 1169.08 144.91
  A 0.51 0.51 0.0 0 0 1170.05 145.11
  Q 1171.07 142.74 1171.87 141.86
  Q 1180.93 131.99 1192.85 126.78
  Q 1204.30 121.78 1218.17 122.36
  Q 1241.67 123.35 1260.17 137.92
  Q 1262.06 139.40 1264.50 142.10
  Q 1268.44 146.44 1268.47 146.47
  Q 1273.74 152.67 1275.98 157.01
  C 1276.62 158.24 1276.94 160.02 1277.64 161.42
  C 1288.86 183.75 1288.13 213.16 1277.60 235.51
  C 1276.79 237.23 1276.66 239.16 1275.70 240.77
  Q 1270.93 248.74 1268.14 251.90
  Q 1264.43 256.10 1262.44 258.71
  A 6.22 5.84 -2.9 0 1 1261.45 259.74
  Q 1252.90 266.71 1247.59 269.53
  C 1230.47 278.64 1209.00 278.00 1191.25 271.27
  Q 1186.28 269.38 1181.27 265.36
  Q 1176.43 261.46 1172.98 257.19
  A 0.41 0.41 0.0 0 0 1172.25 257.45
  L 1172.25 329.81
  A 0.64 0.63 0.0 0 1 1171.61 330.44
  Z
  M 1169.08 199.25
  C 1169.07 204.47 1170.31 209.33 1171.22 214.74
  A 3.69 3.66 28.7 0 0 1171.49 215.63
  C 1174.57 222.66 1178.73 226.89 1184.48 231.31
  A 7.15 7.14 -12.6 0 0 1185.63 232.04
  C 1196.60 237.72 1211.64 237.85 1222.86 232.70
  A 4.76 4.44 -73.5 0 0 1223.64 232.24
  C 1228.73 228.53 1233.02 225.38 1236.13 219.81
  A 3.26 3.04 -26.0 0 0 1236.46 218.95
  Q 1236.72 217.86 1238.21 213.74
  Q 1240.59 207.19 1240.60 199.35
  Q 1240.61 191.51 1238.25 184.96
  Q 1236.77 180.84 1236.51 179.75
  A 3.26 3.04 26.1 0 0 1236.19 178.89
  C 1233.09 173.31 1228.81 170.15 1223.73 166.42
  A 4.76 4.44 73.7 0 0 1222.95 165.96
  C 1211.75 160.78 1196.71 160.87 1185.72 166.52
  A 7.15 7.14 12.7 0 0 1184.57 167.24
  C 1178.81 171.65 1174.64 175.87 1171.54 182.89
  A 3.69 3.66 -28.5 0 0 1171.27 183.78
  C 1170.33 189.18 1169.08 194.04 1169.08 199.25
  Z"
/>
<path fill="#ee2824" d="
  M 1774.88 214.02
  Q 1776.25 224.00 1783.16 230.80
  Q 1784.93 232.56 1790.76 237.03
  A 5.52 5.19 -12.1 0 0 1791.87 237.70
  Q 1806.17 244.27 1822.03 240.41
  Q 1827.08 239.18 1832.24 235.65
  Q 1837.56 232.02 1841.34 228.33
  A 4.54 4.41 81.5 0 0 1842.23 227.09
  Q 1842.87 225.77 1844.31 224.33
  A 0.63 0.63 0.0 0 1 1845.11 224.25
  L 1878.04 247.01
  A 0.61 0.60 38.9 0 1 1878.14 247.92
  Q 1876.33 249.88 1870.84 255.08
  Q 1866.73 258.98 1862.82 261.47
  Q 1846.26 272.00 1828.45 274.92
  Q 1795.30 280.33 1764.59 264.69
  Q 1762.66 263.71 1751.90 256.05
  A 5.89 5.58 -1.5 0 1 1750.91 255.16
  Q 1748.38 252.28 1744.13 248.17
  Q 1742.96 247.03 1738.46 241.22
  A 3.35 3.31 -74.4 0 1 1737.96 240.32
  Q 1737.52 239.16 1734.11 232.93
  C 1722.19 211.11 1723.42 182.30 1736.67 161.12
  C 1737.12 160.41 1737.42 159.29 1737.86 158.59
  Q 1742.14 151.72 1748.59 146.05
  A 5.09 4.88 88.8 0 0 1749.26 145.32
  Q 1750.60 143.49 1751.28 143.01
  Q 1762.08 135.36 1765.45 133.55
  Q 1787.46 121.76 1816.00 122.38
  Q 1836.49 122.83 1853.54 133.00
  Q 1859.36 136.47 1868.02 144.98
  C 1868.60 145.56 1869.00 146.91 1869.65 147.75
  Q 1877.68 158.19 1880.64 167.07
  Q 1881.76 170.42 1884.11 181.77
  Q 1885.39 187.91 1885.53 196.80
  Q 1885.74 210.12 1885.64 212.92
  A 0.61 0.61 0.0 0 1 1885.03 213.50
  L 1775.34 213.50
  A 0.46 0.46 0.0 0 0 1774.88 214.02
  Z
  M 1775.32 182.65
  L 1837.47 182.65
  A 0.44 0.44 0.0 0 0 1837.91 182.21
  C 1837.87 176.02 1835.67 169.83 1831.42 165.25
  Q 1829.69 163.39 1828.29 161.68
  A 4.36 4.23 -0.9 0 0 1827.62 161.05
  Q 1819.57 155.17 1808.75 154.95
  Q 1794.61 154.65 1783.89 163.43
  Q 1775.24 170.51 1774.76 182.07
  A 0.56 0.56 0.0 0 0 1775.32 182.65
  Z"
/>
<path fill="#ee2824" d="
  M 2000.00 123.82
  L 2000.00 124.99
  L 2000.00 162.39
  L 2000.00 163.23
  L 1999.75 164.60
  A 0.44 0.44 0.0 0 1 1999.17 164.93
  C 1989.50 161.61 1977.39 161.10 1967.75 164.44
  Q 1961.65 166.55 1957.24 172.06
  Q 1951.96 178.66 1950.41 186.46
  Q 1948.53 195.90 1948.40 208.00
  Q 1948.26 220.14 1948.35 272.00
  A 0.65 0.64 -0.0 0 1 1947.70 272.64
  L 1908.99 272.64
  A 0.69 0.68 -0.0 0 1 1908.30 271.96
  L 1908.30 126.42
  A 0.52 0.52 0.0 0 1 1908.82 125.90
  L 1947.75 125.90
  A 0.58 0.57 90.0 0 1 1948.32 126.48
  L 1948.32 149.12
  A 0.33 0.33 0.0 0 0 1948.94 149.27
  Q 1952.61 142.03 1958.76 134.54
  Q 1962.19 130.36 1965.81 128.09
  Q 1970.88 124.89 1974.43 123.90
  Q 1986.57 120.49 2000.00 123.82
  Z"
/>
<path fill="#231f20" d="
  M 608.65 124.08
  Q 623.02 124.09 635.45 127.98
  Q 669.85 138.75 683.43 170.57
  Q 689.26 184.21 689.25 201.13
  Q 689.25 218.04 683.41 231.68
  Q 669.81 263.49 635.41 274.24
  Q 622.98 278.12 608.61 278.12
  Q 594.23 278.11 581.81 274.22
  Q 547.41 263.45 533.83 231.63
  Q 528.00 217.99 528.01 201.08
  Q 528.01 184.16 533.84 170.52
  Q 547.45 138.71 581.85 127.96
  Q 594.28 124.08 608.65 124.08
  Z
  M 572.92 201.11
  C 572.92 208.92 574.26 214.34 577.91 221.69
  Q 580.56 227.01 584.00 229.80
  Q 589.26 234.05 593.32 235.56
  C 604.93 239.86 619.67 239.14 630.46 232.21
  A 5.17 4.70 -81.4 0 0 631.26 231.56
  Q 635.66 227.11 636.55 226.04
  Q 642.43 218.89 643.94 209.74
  Q 644.84 204.26 644.84 201.09
  Q 644.84 197.91 643.93 192.44
  Q 642.42 183.29 636.53 176.14
  Q 635.64 175.07 631.24 170.62
  A 5.17 4.70 81.4 0 0 630.44 169.98
  C 619.64 163.05 604.90 162.34 593.30 166.65
  Q 589.24 168.16 583.98 172.42
  Q 580.54 175.21 577.90 180.53
  C 574.25 187.88 572.92 193.30 572.92 201.11
  Z"
/>
<path fill="#231f20" d="
  M 748.89 150.85
  A 0.41 0.41 0.0 0 0 749.71 150.93
  C 750.95 144.82 756.04 138.51 760.60 133.78
  Q 765.41 128.79 770.16 126.88
  C 778.65 123.46 787.70 123.54 796.62 125.25
  A 1.19 1.18 5.6 0 1 797.58 126.41
  L 797.58 166.49
  A 0.41 0.41 0.0 0 1 797.03 166.87
  Q 784.28 162.30 770.96 165.02
  Q 764.78 166.28 760.09 170.39
  Q 752.30 177.23 750.52 187.25
  Q 750.30 188.52 749.27 201.58
  Q 748.85 206.80 748.88 215.94
  Q 748.90 221.99 748.90 273.88
  A 0.59 0.58 -0.0 0 1 748.31 274.46
  L 710.77 274.46
  A 0.38 0.38 0.0 0 1 710.39 274.08
  L 710.39 128.11
  A 0.44 0.43 0.0 0 1 710.83 127.68
  L 748.47 127.68
  A 0.42 0.41 -0.0 0 1 748.89 128.09
  L 748.89 150.85
  Z"
/>
<path fill="#231f20" d="
  M 827.58 228.10
  L 829.89 231.51
  A 1.54 1.21 11.7 0 0 830.05 231.70
  Q 843.35 245.86 862.70 243.28
  C 867.73 242.62 874.86 240.87 876.09 235.03
  C 877.08 230.35 874.91 226.95 870.81 224.54
  C 865.72 221.54 859.14 220.03 854.41 218.92
  Q 842.10 216.02 835.20 214.07
  Q 828.50 212.17 818.16 205.75
  A 5.48 5.39 87.3 0 1 816.69 204.39
  C 814.93 201.97 811.43 198.85 809.53 195.81
  C 804.63 187.96 803.81 179.72 804.14 170.27
  Q 804.55 158.50 810.82 148.64
  C 812.45 146.08 814.95 143.42 816.60 140.79
  A 3.98 3.93 -4.8 0 1 817.32 139.95
  Q 827.32 131.19 838.11 127.82
  C 856.09 122.20 875.96 123.21 893.34 129.47
  Q 898.51 131.33 906.28 136.42
  A 0.39 0.18 64.9 0 1 906.34 136.47
  L 912.83 142.78
  A 1.00 1.00 0.0 0 1 912.86 144.18
  L 887.84 170.55
  A 0.60 0.59 -40.3 0 1 886.92 170.48
  Q 886.60 170.02 882.82 166.12
  C 876.61 159.71 866.31 157.68 857.88 159.01
  A 6.92 6.72 28.3 0 0 856.30 159.46
  Q 853.30 160.75 851.81 161.56
  C 845.89 164.81 844.90 173.80 850.68 177.52
  Q 854.39 179.91 859.80 181.54
  C 871.13 184.94 883.62 186.80 892.57 190.44
  Q 896.82 192.17 905.05 197.56
  A 9.75 9.75 0.0 0 1 907.48 199.82
  Q 908.17 200.74 912.40 205.84
  C 919.03 213.85 919.96 226.76 918.69 237.25
  Q 917.41 247.84 911.18 255.71
  Q 908.19 259.49 907.20 260.92
  A 4.14 3.86 88.0 0 1 906.66 261.54
  Q 895.22 272.09 878.87 275.58
  Q 850.20 281.71 823.55 272.97
  C 816.66 270.70 810.03 266.59 804.74 262.26
  Q 803.47 261.22 801.51 258.52
  A 0.75 0.74 49.6 0 1 801.58 257.57
  Q 802.45 256.67 803.10 255.27
  A 2.11 2.10 78.6 0 1 803.47 254.71
  L 815.30 241.49
  A 2.27 1.92 85.3 0 0 815.50 241.21
  Q 816.52 239.36 816.68 239.19
  Q 821.01 234.25 826.63 228.04
  A 0.61 0.60 -41.0 0 1 827.58 228.10
  Z"
/>
<path fill="#231f20" d="
  M 981.26 215.99
  C 982.31 221.17 985.05 225.00 987.10 229.42
  A 5.57 5.41 -81.0 0 0 988.22 231.01
  Q 995.53 238.28 1001.37 240.56
  Q 1018.93 247.42 1036.97 239.33
  A 6.59 6.55 12.7 0 0 1038.53 238.35
  Q 1040.08 237.05 1044.08 234.09
  Q 1048.15 231.09 1051.99 226.43
  A 0.59 0.58 -53.3 0 1 1052.77 226.31
  L 1078.00 243.18
  A 1.70 1.41 76.9 0 1 1078.21 243.34
  Q 1081.27 246.12 1085.82 248.61
  A 0.67 0.67 0.0 0 1 1085.97 249.67
  Q 1081.68 253.89 1080.46 255.21
  Q 1077.38 258.55 1074.65 260.38
  Q 1066.07 266.15 1063.15 267.63
  Q 1045.52 276.57 1025.76 277.91
  Q 1000.01 279.65 974.86 268.39
  Q 973.07 267.59 965.71 263.09
  Q 962.50 261.13 959.84 258.76
  C 956.34 255.64 953.25 253.13 948.88 248.47
  A 3.57 3.16 12.4 0 1 948.39 247.80
  Q 947.53 246.28 943.63 240.64
  C 939.45 234.59 934.91 225.96 934.23 218.45
  C 933.93 215.05 933.12 212.34 932.89 208.92
  C 932.38 201.56 932.57 194.63 933.70 187.42
  Q 934.12 184.79 934.58 181.78
  C 935.86 173.49 941.41 164.16 946.89 156.95
  A 6.64 6.38 -15.8 0 0 947.64 155.67
  Q 948.25 154.25 948.50 154.00
  Q 956.69 145.68 962.79 141.04
  Q 964.76 139.53 970.63 136.21
  Q 975.04 133.71 978.86 132.09
  Q 998.47 123.80 1021.75 124.14
  Q 1044.40 124.48 1061.91 135.24
  Q 1064.79 137.02 1066.88 138.84
  C 1070.96 142.43 1074.28 145.21 1078.64 150.36
  Q 1079.00 150.79 1079.43 151.98
  A 4.88 4.76 -73.6 0 0 1080.05 153.15
  C 1087.40 163.61 1092.05 175.43 1092.92 188.28
  Q 1093.94 203.39 1093.51 215.02
  A 0.33 0.33 0.0 0 1 1093.18 215.34
  L 981.79 215.34
  A 0.54 0.54 0.0 0 0 981.26 215.99
  Z
  M 981.67 184.46
  L 1044.41 184.46
  A 0.58 0.58 0.0 0 0 1044.99 183.90
  Q 1045.21 177.45 1042.15 172.06
  Q 1040.94 169.92 1038.79 166.57
  A 4.37 4.36 -85.6 0 0 1037.97 165.61
  Q 1031.05 159.52 1025.25 158.08
  Q 1004.51 152.95 988.32 167.09
  A 4.94 4.90 -5.8 0 0 987.29 168.34
  Q 986.19 170.26 984.02 173.97
  Q 981.49 178.29 981.20 183.96
  A 0.47 0.47 0.0 0 0 981.67 184.46
  Z"
/>
<path fill="#ee2824" d="
  M 1471.94 201.26
  C 1471.93 215.41 1468.65 228.13 1461.10 240.79
  Q 1460.83 241.25 1460.46 242.54
  A 2.30 2.28 71.2 0 1 1460.12 243.24
  Q 1455.42 249.90 1451.70 253.47
  Q 1447.85 257.17 1446.45 258.85
  A 3.67 3.35 -85.5 0 1 1445.80 259.46
  Q 1435.87 266.56 1431.80 268.58
  C 1405.58 281.61 1373.18 281.54 1347.31 267.85
  C 1342.96 265.55 1339.31 262.71 1335.28 259.72
  Q 1331.78 257.13 1329.80 254.80
  C 1324.40 248.44 1318.75 241.77 1316.38 236.37
  C 1315.78 235.02 1315.41 233.08 1314.65 231.30
  C 1310.52 221.65 1308.64 211.67 1308.65 201.15
  C 1308.65 190.62 1310.55 180.65 1314.69 171.00
  C 1315.45 169.23 1315.83 167.29 1316.43 165.94
  C 1318.81 160.54 1324.47 153.88 1329.87 147.53
  Q 1331.86 145.20 1335.36 142.61
  C 1339.40 139.63 1343.05 136.80 1347.40 134.50
  C 1373.29 120.85 1405.69 120.82 1431.89 133.89
  Q 1435.96 135.91 1445.88 143.03
  A 3.67 3.35 85.6 0 1 1446.53 143.64
  Q 1447.93 145.32 1451.77 149.03
  Q 1455.49 152.60 1460.18 159.27
  A 2.30 2.28 -71.2 0 1 1460.52 159.97
  Q 1460.89 161.26 1461.15 161.72
  C 1468.69 174.39 1471.95 187.11 1471.94 201.26
  Z
  M 1425.9574 196.9825
  A 32.64 32.64 0.0 0 0 1393.3744 164.2856
  L 1387.0744 164.2746
  A 32.64 32.64 0.0 0 0 1354.3775 196.8575
  L 1354.3626 205.4175
  A 32.64 32.64 0.0 0 0 1386.9456 238.1144
  L 1393.2456 238.1254
  A 32.64 32.64 0.0 0 0 1425.9425 205.5425
  L 1425.9574 196.9825
  Z"
/>
<path fill="#ee2824" d="
  M 1644.98 217.55
  A 0.44 0.44 0.0 0 0 1645.83 217.58
  L 1670.28 126.27
  A 0.50 0.50 0.0 0 1 1670.76 125.90
  L 1710.22 125.90
  A 0.50 0.50 0.0 0 1 1710.72 126.44
  Q 1710.54 128.52 1710.23 129.50
  Q 1709.76 130.98 1698.50 164.75
  C 1697.55 167.61 1697.12 171.02 1696.15 173.93
  Q 1690.43 191.15 1685.05 207.20
  C 1684.26 209.54 1684.22 211.94 1683.64 213.66
  Q 1683.25 214.81 1675.39 238.26
  Q 1673.21 244.78 1670.23 255.50
  Q 1667.99 263.54 1664.76 272.17
  A 0.74 0.73 10.3 0 1 1664.07 272.64
  L 1625.62 272.64
  A 1.04 1.04 0.0 0 1 1624.62 271.88
  L 1598.05 175.51
  A 0.36 0.36 0.0 0 0 1597.36 175.50
  Q 1594.76 184.01 1593.44 190.43
  Q 1591.12 201.68 1590.12 205.49
  Q 1585.33 223.78 1579.88 244.56
  C 1579.16 247.33 1579.26 249.85 1578.56 252.47
  Q 1575.58 263.61 1573.51 272.04
  A 0.79 0.79 0.0 0 1 1572.74 272.64
  L 1533.32 272.64
  A 0.79 0.77 -9.4 0 1 1532.58 272.12
  Q 1528.82 261.81 1527.62 257.42
  Q 1525.21 248.66 1523.11 242.57
  Q 1515.61 220.83 1514.20 216.73
  C 1513.62 215.03 1513.21 212.03 1512.78 210.66
  Q 1511.10 205.26 1500.83 175.68
  C 1500.19 173.84 1499.87 171.12 1499.39 169.56
  Q 1497.69 164.06 1488.30 137.10
  C 1487.07 133.54 1486.27 129.29 1485.55 126.49
  A 0.47 0.47 0.0 0 1 1486.01 125.90
  L 1527.16 125.90
  A 0.68 0.68 0.0 0 1 1527.81 126.38
  Q 1537.84 159.19 1539.30 164.83
  Q 1539.54 165.78 1539.90 167.73
  Q 1540.26 169.72 1540.53 170.62
  Q 1549.92 201.59 1550.75 204.20
  C 1552.15 208.60 1552.80 213.21 1554.04 217.76
  A 0.47 0.47 0.0 0 0 1554.95 217.74
  L 1577.13 126.53
  A 0.81 0.81 0.0 0 1 1577.92 125.91
  L 1620.54 125.91
  A 0.54 0.54 0.0 0 1 1621.06 126.30
  Q 1627.59 149.27 1630.83 161.88
  C 1631.37 163.96 1632.00 168.20 1632.66 170.61
  Q 1635.90 182.43 1644.15 212.20
  C 1644.72 214.24 1644.66 215.83 1644.98 217.55
  Z"
/>
<path fill="#ee2824" d="
  M 98.13 135.87
  C 93.97 136.57 89.47 136.66 87.05 138.79
  C 84.26 141.25 84.52 145.72 82.06 148.50
  C 78.58 152.43 73.18 151.49 67.83 151.46
  C 66.09 151.45 64.44 152.95 62.73 152.35
  A 0.34 0.33 37.5 0 1 62.65 151.76
  Q 69.11 147.37 72.21 143.97
  Q 73.79 142.23 79.39 134.95
  A 3.57 3.37 -87.9 0 1 80.00 134.35
  C 84.12 131.17 88.00 131.92 92.76 134.25
  Q 95.19 135.44 98.13 135.87
  Z"
/>
<path fill="#ffffff" d="
  M 302.78 144.77
  Q 301.20 141.25 296.33 139.37
  A 0.44 0.44 0.0 0 1 296.27 138.58
  C 300.83 136.03 306.14 137.27 308.38 142.27
  C 310.61 147.26 307.98 152.05 303.05 153.75
  A 0.44 0.44 0.0 0 1 302.49 153.17
  Q 304.35 148.29 302.78 144.77
  Z"
/>
<path fill="#ffffff" d="
  M 311.51 183.68
  Q 311.22 179.81 307.23 176.37
  A 0.44 0.44 0.0 0 1 307.45 175.59
  C 312.64 174.74 317.26 177.72 317.67 183.22
  C 318.08 188.72 313.96 192.36 308.71 192.29
  A 0.44 0.44 0.0 0 1 308.37 191.56
  Q 311.80 187.56 311.51 183.68
  Z"
/>
<path fill="#ffffff" d="
  M 309.97 221.58
  Q 310.80 217.73 307.92 213.24
  A 0.45 0.45 0.0 0 1 308.35 212.55
  C 313.64 213.21 317.27 217.43 316.09 222.89
  C 314.91 228.36 309.86 230.71 304.77 229.13
  A 0.45 0.45 0.0 0 1 304.66 228.33
  Q 309.14 225.42 309.97 221.58
  Z"
/>
<path fill="#ffffff" d="
  M 39.14 252.23
  A 0.15 0.15 0.0 0 0 38.86 252.30
  C 39.13 259.33 31.94 262.68 27.08 257.14
  Q 26.76 256.77 25.04 253.70
  A 4.00 3.73 -67.7 0 1 24.67 252.72
  Q 23.23 246.37 29.12 244.22
  A 0.69 0.69 0.0 0 0 29.22 242.97
  Q 25.79 241.09 22.15 241.38
  A 0.44 0.44 0.0 0 1 21.81 240.63
  C 23.86 238.63 28.26 237.75 32.69 236.28
  Q 35.45 235.38 38.66 237.37
  A 2.91 2.64 -2.7 0 1 39.23 237.84
  C 43.62 242.60 48.97 248.11 46.86 255.17
  Q 45.13 260.98 39.96 264.67
  A 0.45 0.44 73.3 0 1 39.26 264.29
  C 39.44 259.17 40.05 254.24 39.14 252.23
  Z"
/>
<path fill="#ffffff" d="
  M 299.33 259.70
  Q 300.97 256.21 299.22 251.29
  A 0.44 0.44 0.0 0 1 299.79 250.74
  C 304.68 252.54 307.20 257.37 304.86 262.31
  C 302.53 267.25 297.20 268.37 292.70 265.74
  A 0.44 0.44 0.0 0 1 292.77 264.95
  Q 297.68 263.17 299.33 259.70
  Z"
/>
<path fill="#231f20" d="
  M 118.75 260.30
  Q 118.75 259.88 118.86 259.48
  Q 119.01 259.89 118.75 260.30
  Z"
/>
<path fill="#ffffff" d="
  M 280.90 293.65
  Q 283.69 290.96 283.81 285.69
  A 0.44 0.44 0.0 0 1 284.55 285.37
  C 288.51 288.82 289.16 294.28 285.18 298.10
  C 281.20 301.93 275.77 301.07 272.47 296.97
  A 0.44 0.44 0.0 0 1 272.83 296.25
  Q 278.09 296.34 280.90 293.65
  Z"
/>
<path fill="#ee2824" d="
  M 383.94 329.55
  L 390.13 288.70
  A 0.57 0.56 -85.9 0 1 390.69 288.21
  L 407.42 288.21
  A 0.69 0.68 85.5 0 1 408.09 288.79
  Q 408.44 291.10 406.42 304.38
  Q 406.06 306.75 402.71 329.69
  A 0.71 0.71 0.0 0 1 402.01 330.30
  L 384.58 330.30
  A 0.65 0.65 0.0 0 1 383.94 329.55
  Z"
/>
<path fill="#ee2824" d="
  M 480.00 288.19
  L 494.42 288.19
  A 0.67 0.67 0.0 0 1 495.08 288.96
  L 488.91 329.70
  A 0.67 0.67 0.0 0 1 488.24 330.27
  L 473.83 330.27
  A 0.67 0.67 0.0 0 1 473.17 329.50
  L 479.33 288.76
  A 0.67 0.67 0.0 0 1 480.00 288.19
  Z"
/>
<path fill="#ee2824" d="
  M 592.63 288.22
  L 604.87 288.22
  A 0.30 0.30 0.0 0 1 605.17 288.56
  L 598.89 330.04
  A 0.30 0.30 0.0 0 1 598.59 330.30
  L 586.35 330.30
  A 0.30 0.30 0.0 0 1 586.05 329.96
  L 592.33 288.48
  A 0.30 0.30 0.0 0 1 592.63 288.22
  Z"
/>
<path fill="#ee2824" d="
  M 620.23 330.29
  L 608.22 330.29
  A 0.42 0.42 0.0 0 1 607.80 329.81
  L 614.05 288.57
  A 0.42 0.42 0.0 0 1 614.46 288.21
  L 626.47 288.21
  A 0.42 0.42 0.0 0 1 626.89 288.69
  L 620.64 329.93
  A 0.42 0.42 0.0 0 1 620.23 330.29
  Z"
/>
<path fill="#231f20" d="
  M 663.55 330.31
  L 651.32 330.31
  A 0.31 0.31 0.0 0 1 651.01 329.95
  L 657.29 288.49
  A 0.31 0.31 0.0 0 1 657.60 288.23
  L 669.84 288.23
  A 0.31 0.31 0.0 0 1 670.15 288.59
  L 663.86 330.05
  A 0.31 0.31 0.0 0 1 663.55 330.31
  Z"
/>
<path fill="#231f20" d="
  M 953.13 288.46
  Q 949.42 309.71 947.46 329.94
  A 0.38 0.37 -86.5 0 1 947.09 330.28
  L 939.98 330.28
  A 0.27 0.27 0.0 0 1 939.71 329.97
  L 946.00 288.46
  A 0.31 0.30 -85.6 0 1 946.30 288.20
  L 952.91 288.20
  A 0.22 0.22 0.0 0 1 953.13 288.46
  Z"
/>
<path fill="#231f20" d="
  M 984.61 330.15
  L 989.74 288.71
  A 0.65 0.64 -85.6 0 1 990.40 288.14
  L 994.26 288.22
  A 0.53 0.53 0.0 0 1 994.77 288.83
  L 988.53 330.05
  A 0.34 0.32 -83.9 0 1 988.20 330.33
  L 984.70 330.25
  A 0.09 0.09 0.0 0 1 984.61 330.15
  Z"
/>
<path fill="#ee2824" d="
  M 260.67 330.26
  L 269.43 322.30
  A 0.65 0.64 -49.1 0 1 270.21 322.24
  L 274.51 324.96
  A 3.08 3.08 0.0 0 0 278.05 324.79
  Q 279.97 323.28 282.82 320.31
  C 285.38 317.64 282.47 314.09 280.63 311.78
  A 0.85 0.85 0.0 0 1 280.70 310.64
  Q 286.09 305.32 289.11 300.84
  C 292.54 295.76 294.04 294.09 297.45 289.18
  A 0.74 0.74 0.0 0 1 298.37 288.92
  Q 299.95 289.63 302.77 290.09
  Q 306.16 290.64 307.03 288.23
  L 320.89 288.23
  A 0.65 0.65 0.0 0 1 321.53 288.99
  Q 320.09 297.53 319.38 302.81
  C 318.13 311.95 316.38 320.83 316.04 329.80
  A 0.48 0.48 0.0 0 1 315.56 330.27
  L 260.67 330.26
  Z"
/>
<path fill="#ee2824" d="
  M 324.77 288.25
  L 342.14 288.25
  A 0.65 0.65 0.0 0 1 342.79 289.00
  L 336.60 329.78
  A 0.65 0.65 0.0 0 1 335.96 330.33
  L 318.59 330.33
  A 0.65 0.65 0.0 0 1 317.94 329.58
  L 324.13 288.80
  A 0.65 0.65 0.0 0 1 324.77 288.25
  Z"
/>
<path fill="#ee2824" d="
  M 358.29 330.30
  L 341.04 330.30
  A 0.33 0.33 0.0 0 1 340.72 329.93
  L 345.84 288.51
  A 0.33 0.33 0.0 0 1 346.17 288.22
  L 364.56 288.22
  A 0.33 0.33 0.0 0 1 364.88 288.60
  L 358.61 330.02
  A 0.33 0.33 0.0 0 1 358.29 330.30
  Z"
/>
<path fill="#ee2824" d="
  M 386.48 288.92
  Q 383.70 307.49 382.86 312.97
  C 382.01 318.55 382.05 323.61 381.25 329.29
  A 1.18 1.17 3.9 0 1 380.08 330.30
  L 362.93 330.30
  A 0.57 0.56 4.4 0 1 362.37 329.65
  L 368.57 288.72
  A 0.59 0.58 3.9 0 1 369.15 288.22
  L 385.88 288.22
  A 0.61 0.61 0.0 0 1 386.48 288.92
  Z"
/>
<path fill="#ee2824" d="
  M 407.82 329.69
  Q 408.18 323.53 408.18 323.51
  Q 411.30 303.24 413.28 288.72
  A 0.58 0.57 -86.0 0 1 413.85 288.22
  L 428.66 288.22
  A 0.55 0.54 4.1 0 1 429.20 288.84
  L 423.01 329.64
  A 0.78 0.78 0.0 0 1 422.24 330.30
  L 408.40 330.30
  A 0.58 0.57 1.8 0 1 407.82 329.69
  Z"
/>
<path fill="#ee2824" d="
  M 429.81 329.65
  Q 430.66 322.97 433.31 305.71
  C 434.15 300.24 434.57 293.16 435.11 288.81
  A 0.67 0.66 -86.6 0 1 435.77 288.22
  L 450.47 288.22
  A 0.22 0.22 0.0 0 1 450.69 288.47
  L 445.59 329.72
  A 0.66 0.65 3.5 0 1 444.94 330.29
  L 430.38 330.29
  A 0.57 0.57 0.0 0 1 429.81 329.65
  Z"
/>
<path fill="#ee2824" d="
  M 466.71 330.30
  L 451.80 330.30
  A 0.43 0.43 0.0 0 1 451.37 329.81
  L 457.62 288.59
  A 0.43 0.43 0.0 0 1 458.05 288.22
  L 472.95 288.22
  A 0.43 0.43 0.0 0 1 473.38 288.71
  L 467.14 329.93
  A 0.43 0.43 0.0 0 1 466.71 330.30
  Z"
/>
<path fill="#ee2824" d="
  M 496.26 330.31
  A 0.57 0.57 0.0 0 1 495.69 329.67
  Q 496.54 322.98 499.19 305.71
  C 500.03 300.24 500.45 293.15 500.99 288.80
  A 0.67 0.66 -86.6 0 1 501.65 288.21
  L 516.36 288.21
  A 0.22 0.22 0.0 0 1 516.58 288.46
  L 511.48 329.73
  A 0.66 0.65 3.5 0 1 510.83 330.30
  L 496.26 330.31
  Z"
/>
<path fill="#ee2824" d="
  M 523.92 288.22
  L 538.83 288.22
  A 0.43 0.43 0.0 0 1 539.26 288.71
  L 533.02 329.94
  A 0.43 0.43 0.0 0 1 532.59 330.31
  L 517.68 330.31
  A 0.43 0.43 0.0 0 1 517.25 329.82
  L 523.49 288.59
  A 0.43 0.43 0.0 0 1 523.92 288.22
  Z"
/>
<path fill="#ee2824" d="
  M 548.51 288.21
  L 560.65 288.21
  A 0.35 0.35 0.0 0 1 561.00 288.61
  L 554.74 329.99
  A 0.35 0.35 0.0 0 1 554.39 330.29
  L 542.25 330.29
  A 0.35 0.35 0.0 0 1 541.90 329.89
  L 548.16 288.51
  A 0.35 0.35 0.0 0 1 548.51 288.21
  Z"
/>
<path fill="#ee2824" d="
  M 564.46 329.70
  L 569.47 289.18
  A 1.11 1.10 3.5 0 1 570.57 288.22
  L 582.27 288.22
  A 0.50 0.50 0.0 0 1 582.76 288.81
  Q 581.10 297.15 580.05 307.27
  Q 578.43 322.83 577.33 329.93
  A 0.44 0.43 -85.3 0 1 576.90 330.30
  L 564.99 330.30
  A 0.54 0.53 -86.7 0 1 564.46 329.70
  Z"
/>
<path fill="#231f20" d="
  M 641.85 330.29
  L 629.59 330.29
  A 0.34 0.34 0.0 0 1 629.26 329.91
  L 634.38 288.51
  A 0.34 0.34 0.0 0 1 634.72 288.21
  L 646.97 288.21
  A 0.34 0.34 0.0 0 1 647.30 288.59
  L 642.19 329.99
  A 0.34 0.34 0.0 0 1 641.85 330.29
  Z"
/>
<path fill="#231f20" d="
  M 679.62 288.21
  L 691.83 288.21
  A 0.32 0.32 0.0 0 1 692.14 288.58
  L 685.87 330.02
  A 0.32 0.32 0.0 0 1 685.55 330.29
  L 673.33 330.29
  A 0.32 0.32 0.0 0 1 673.02 329.92
  L 679.30 288.48
  A 0.32 0.32 0.0 0 1 679.62 288.21
  Z"
/>
<path fill="#231f20" d="
  M 705.44 330.31
  L 696.59 330.31
  A 0.74 0.74 0.0 0 1 695.85 329.48
  L 700.88 288.88
  A 0.74 0.74 0.0 0 1 701.61 288.23
  L 710.46 288.23
  A 0.74 0.74 0.0 0 1 711.20 289.06
  L 706.17 329.66
  A 0.74 0.74 0.0 0 1 705.44 330.31
  Z"
/>
<path fill="#231f20" d="
  M 724.27 288.18
  L 733.61 288.18
  A 0.30 0.30 0.0 0 1 733.91 288.52
  L 727.62 330.00
  A 0.30 0.30 0.0 0 1 727.32 330.26
  L 717.99 330.26
  A 0.30 0.30 0.0 0 1 717.69 329.92
  L 723.97 288.44
  A 0.30 0.30 0.0 0 1 724.27 288.18
  Z"
/>
<path fill="#231f20" d="
  M 749.34 330.35
  L 740.04 330.35
  A 0.32 0.32 0.0 0 1 739.73 329.98
  L 746.00 288.53
  A 0.32 0.32 0.0 0 1 746.32 288.26
  L 755.63 288.26
  A 0.32 0.32 0.0 0 1 755.94 288.63
  L 749.66 330.08
  A 0.32 0.32 0.0 0 1 749.34 330.35
  Z"
/>
<path fill="#231f20" d="
  M 772.04 330.29
  L 763.15 330.29
  A 0.72 0.72 0.0 0 1 762.44 329.48
  L 767.47 288.83
  A 0.72 0.72 0.0 0 1 768.19 288.20
  L 777.08 288.20
  A 0.72 0.72 0.0 0 1 777.79 289.01
  L 772.76 329.66
  A 0.72 0.72 0.0 0 1 772.04 330.29
  Z"
/>
<path fill="#231f20" d="
  M 784.50 330.00
  Q 786.06 318.94 788.32 303.89
  C 789.08 298.84 789.39 293.88 789.96 288.81
  A 0.69 0.68 -86.7 0 1 790.64 288.20
  L 800.04 288.21
  A 0.53 0.53 0.0 0 1 800.56 288.82
  L 794.32 330.02
  A 0.33 0.32 -85.9 0 1 794.00 330.30
  L 784.76 330.30
  A 0.26 0.26 0.0 0 1 784.50 330.00
  Z"
/>
<path fill="#231f20" d="
  M 813.04 288.20
  L 822.16 288.20
  A 0.41 0.41 0.0 0 1 822.57 288.67
  L 816.31 329.93
  A 0.41 0.41 0.0 0 1 815.91 330.28
  L 806.80 330.28
  A 0.41 0.41 0.0 0 1 806.39 329.81
  L 812.64 288.55
  A 0.41 0.41 0.0 0 1 813.04 288.20
  Z"
/>
<path fill="#231f20" d="
  M 835.57 288.20
  L 841.32 288.20
  A 0.97 0.97 0.0 0 1 842.28 289.32
  L 836.20 329.46
  A 0.97 0.97 0.0 0 1 835.24 330.28
  L 829.49 330.28
  A 0.97 0.97 0.0 0 1 828.53 329.16
  L 834.61 289.02
  A 0.97 0.97 0.0 0 1 835.57 288.20
  Z"
/>
<path fill="#231f20" d="
  M 857.87 330.24
  L 851.27 330.28
  A 0.22 0.22 0.0 0 1 851.05 330.02
  Q 854.64 308.80 856.49 288.61
  A 0.38 0.37 -86.8 0 1 856.86 288.27
  L 863.95 288.23
  A 0.27 0.27 0.0 0 1 864.22 288.54
  L 858.16 329.98
  A 0.31 0.30 -85.9 0 1 857.87 330.24
  Z"
/>
<path fill="#231f20" d="
  M 879.57 288.23
  L 886.19 288.20
  A 0.22 0.22 0.0 0 1 886.41 288.46
  Q 882.77 309.75 880.88 330.02
  A 0.39 0.37 -86.7 0 1 880.51 330.36
  L 873.39 330.38
  A 0.27 0.27 0.0 0 1 873.12 330.07
  L 879.27 288.49
  A 0.31 0.30 -85.8 0 1 879.57 288.23
  Z"
/>
<path fill="#231f20" d="
  M 902.86 330.04
  A 0.29 0.28 -85.2 0 1 902.58 330.28
  L 895.43 330.28
  A 0.36 0.36 0.0 0 1 895.07 329.86
  L 901.34 288.45
  A 0.29 0.28 -85.2 0 1 901.62 288.21
  L 907.90 288.21
  A 0.25 0.25 0.0 0 1 908.15 288.48
  C 907.84 293.37 907.44 299.89 906.49 305.65
  Q 905.77 310.00 902.86 330.04
  Z"
/>
<path fill="#231f20" d="
  M 924.47 330.31
  L 918.33 330.31
  A 0.30 0.30 0.0 0 1 918.03 329.97
  L 923.16 288.50
  A 0.30 0.30 0.0 0 1 923.46 288.24
  L 930.76 288.24
  A 0.30 0.30 0.0 0 1 931.06 288.58
  L 924.77 330.05
  A 0.30 0.30 0.0 0 1 924.47 330.31
  Z"
/>
<path fill="#231f20" d="
  M 968.52 288.24
  L 974.41 288.24
  A 0.53 0.53 0.0 0 1 974.94 288.84
  L 969.86 329.84
  A 0.53 0.53 0.0 0 1 969.33 330.30
  L 962.31 330.30
  A 0.53 0.53 0.0 0 1 961.78 329.69
  L 967.99 288.69
  A 0.53 0.53 0.0 0 1 968.52 288.24
  Z"
/>
<path fill="#231f20" d="
  M 1006.86 330.06
  A 0.26 0.26 0.0 0 1 1006.64 329.76
  L 1006.65 329.67
  A 42.17 0.55 -82.2 0 1 1012.92 287.97
  L 1016.39 288.44
  A 42.17 0.55 -82.2 0 1 1011.21 330.30
  L 1011.20 330.39
  A 0.26 0.26 0.0 0 1 1010.91 330.61
  L 1006.86 330.06
  Z"
/>
<path fill="#231f20" d="
  M 1032.64 330.35
  L 1029.05 330.35
  A 0.60 0.60 0.0 0 1 1028.45 329.66
  L 1034.65 288.77
  A 0.60 0.60 0.0 0 1 1035.25 288.26
  L 1038.84 288.26
  A 0.60 0.60 0.0 0 1 1039.44 288.95
  L 1033.24 329.84
  A 0.60 0.60 0.0 0 1 1032.64 330.35
  Z"
/>
<path fill="#231f20" d="
  M 1054.70 330.31
  L 1051.78 330.31
  A 0.56 0.56 0.0 0 1 1051.23 329.68
  L 1056.29 288.77
  A 0.56 0.56 0.0 0 1 1056.83 288.28
  L 1060.90 288.17
  A 0.56 0.56 0.0 0 1 1061.47 288.81
  L 1055.25 329.83
  A 0.56 0.56 0.0 0 1 1054.70 330.31
  Z"
/>
<path fill="#231f20" d="
  M 1579.3300 312.4678
  A 18.44 17.79 -0.1 0 1 1560.9210 330.2900
  A 18.44 17.79 -0.1 0 1 1542.4500 312.5322
  A 18.44 17.79 -0.1 0 1 1560.8590 294.7100
  A 18.44 17.79 -0.1 0 1 1579.3300 312.4678
  Z
  M 1570.8359 310.8250
  A 9.14 9.14 0.0 0 0 1561.7278 301.6531
  L 1559.9878 301.6470
  A 9.14 9.14 0.0 0 0 1550.8160 310.7551
  L 1550.8041 314.1550
  A 9.14 9.14 0.0 0 0 1559.9122 323.3269
  L 1561.6522 323.3330
  A 9.14 9.14 0.0 0 0 1570.8240 314.2249
  L 1570.8359 310.8250
  Z"
/>
<path fill="#231f20" d="
  M 1353.16 317.36
  Q 1354.72 314.01 1355.24 310.61
  A 2.35 2.31 60.5 0 1 1355.39 310.05
  L 1360.63 297.11
  A 1.61 1.59 -78.0 0 1 1362.15 296.11
  L 1368.01 296.24
  A 0.80 0.79 12.5 0 1 1368.72 297.35
  L 1355.02 329.05
  A 0.66 0.65 11.6 0 1 1354.42 329.44
  L 1349.85 329.44
  A 0.95 0.94 79.0 0 1 1348.97 328.84
  C 1346.37 322.33 1344.18 317.81 1341.84 310.73
  Q 1339.62 304.03 1335.81 296.39
  A 0.13 0.12 -12.7 0 1 1335.93 296.21
  L 1343.90 296.21
  A 0.25 0.24 -10.3 0 1 1344.13 296.36
  L 1352.51 317.34
  A 0.36 0.35 46.4 0 0 1353.16 317.36
  Z"
/>
<path fill="#231f20" d="
  M 1195.04 296.55
  A 0.27 0.27 0.0 0 1 1195.31 296.28
  L 1208.72 296.24
  A 16.70 14.80 -0.2 0 1 1225.47 310.98
  L 1225.49 314.44
  A 16.70 14.80 -0.2 0 1 1208.84 329.30
  L 1195.43 329.34
  A 0.27 0.27 0.0 0 1 1195.16 329.07
  L 1195.04 296.55
  Z
  M 1202.21 303.32
  L 1202.21 322.36
  A 0.42 0.42 0.0 0 0 1202.63 322.78
  L 1207.62 322.78
  A 10.47 9.10 0.0 0 0 1218.09 313.68
  L 1218.09 312.00
  A 10.47 9.10 -0.0 0 0 1207.62 302.90
  L 1202.63 302.90
  A 0.42 0.42 0.0 0 0 1202.21 303.32
  Z"
/>
<path fill="#231f20" d="
  M 1291.68 315.46
  L 1277.97 315.46
  A 0.44 0.44 0.0 0 0 1277.53 315.90
  L 1277.53 322.36
  A 0.44 0.44 0.0 0 0 1277.97 322.80
  L 1293.54 322.80
  A 0.44 0.44 0.0 0 1 1293.98 323.24
  L 1293.98 328.97
  A 0.44 0.44 0.0 0 1 1293.54 329.41
  L 1270.79 329.41
  A 0.44 0.44 0.0 0 1 1270.35 328.97
  L 1270.35 296.65
  A 0.44 0.44 0.0 0 1 1270.79 296.21
  L 1292.54 296.21
  A 0.44 0.44 0.0 0 1 1292.98 296.65
  L 1292.98 302.42
  A 0.44 0.44 0.0 0 1 1292.54 302.86
  L 1277.97 302.86
  A 0.44 0.44 0.0 0 0 1277.53 303.30
  L 1277.53 308.40
  A 0.44 0.44 0.0 0 0 1277.97 308.84
  L 1291.68 308.84
  A 0.44 0.44 0.0 0 1 1292.12 309.28
  L 1292.12 315.02
  A 0.44 0.44 0.0 0 1 1291.68 315.46
  Z"
/>
<path fill="#231f20" d="
  M 1419.19 308.83
  L 1433.00 308.83
  A 0.38 0.38 0.0 0 1 1433.38 309.21
  L 1433.38 315.09
  A 0.38 0.38 0.0 0 1 1433.00 315.47
  L 1419.20 315.47
  A 0.38 0.38 0.0 0 0 1418.82 315.85
  L 1418.82 322.43
  A 0.38 0.38 0.0 0 0 1419.20 322.81
  L 1434.17 322.81
  A 0.38 0.38 0.0 0 1 1434.55 323.19
  L 1434.55 329.05
  A 0.38 0.38 0.0 0 1 1434.17 329.43
  L 1411.47 329.43
  A 0.38 0.38 0.0 0 1 1411.09 329.05
  L 1411.09 296.58
  A 0.38 0.38 0.0 0 1 1411.47 296.20
  L 1433.75 296.20
  A 0.38 0.38 0.0 0 1 1434.13 296.58
  L 1434.13 302.47
  A 0.38 0.38 0.0 0 1 1433.75 302.85
  L 1419.19 302.85
  A 0.38 0.38 0.0 0 0 1418.81 303.23
  L 1418.81 308.45
  A 0.38 0.38 0.0 0 0 1419.19 308.83
  Z"
/>
<path fill="#231f20" d="
  M 1500.64 329.43
  L 1480.82 329.43
  A 0.42 0.42 0.0 0 1 1480.40 329.01
  L 1480.40 296.60
  A 0.42 0.42 0.0 0 1 1480.82 296.18
  L 1487.04 296.18
  A 0.42 0.42 0.0 0 1 1487.46 296.60
  L 1487.46 322.39
  A 0.42 0.42 0.0 0 0 1487.88 322.81
  L 1500.64 322.81
  A 0.42 0.42 0.0 0 1 1501.06 323.23
  L 1501.06 329.01
  A 0.42 0.42 0.0 0 1 1500.64 329.43
  Z"
/>
<path fill="#231f20" d="
  M 1623.60 296.25
  Q 1635.34 295.93 1640.32 296.62
  Q 1645.78 297.38 1647.50 303.03
  Q 1649.41 309.31 1644.33 314.31
  A 2.62 2.53 12.4 0 1 1643.37 314.90
  Q 1639.74 316.17 1636.52 316.16
  Q 1632.66 316.15 1631.26 316.21
  A 0.66 0.66 0.0 0 0 1630.62 316.87
  L 1630.62 329.13
  A 0.30 0.30 0.0 0 1 1630.32 329.43
  L 1623.27 329.43
  A 0.30 0.30 0.0 0 1 1622.97 329.13
  L 1622.97 296.89
  A 0.65 0.64 -0.9 0 1 1623.60 296.25
  Z
  M 1630.63 302.62
  L 1630.59 309.72
  A 0.43 0.43 0.0 0 0 1631.01 310.15
  L 1635.69 310.18
  A 4.87 3.80 0.4 0 0 1640.59 306.41
  L 1640.59 306.05
  A 4.87 3.80 0.4 0 0 1635.75 302.22
  L 1631.07 302.19
  A 0.43 0.43 0.0 0 0 1630.63 302.62
  Z"
/>
<path fill="#231f20" d="
  M 1710.58 317.15
  A 0.31 0.31 0.0 0 0 1711.18 317.21
  L 1718.50 296.83
  A 0.97 0.97 0.0 0 1 1719.41 296.19
  L 1729.32 296.19
  A 0.61 0.61 0.0 0 1 1729.93 296.80
  L 1729.93 329.14
  A 0.30 0.29 -90.0 0 1 1729.64 329.44
  L 1723.21 329.44
  A 0.28 0.28 0.0 0 1 1722.93 329.16
  L 1722.93 304.57
  A 0.23 0.23 0.0 0 0 1722.48 304.49
  L 1713.72 328.87
  A 0.87 0.86 9.4 0 1 1712.90 329.45
  L 1708.95 329.45
  A 1.01 1.01 0.0 0 1 1708.00 328.78
  L 1699.55 304.45
  A 0.22 0.22 0.0 0 0 1699.12 304.53
  L 1699.12 329.14
  A 0.29 0.29 0.0 0 1 1698.83 329.43
  L 1692.41 329.43
  A 0.29 0.29 0.0 0 1 1692.12 329.14
  L 1692.12 296.88
  A 0.69 0.68 90.0 0 1 1692.80 296.19
  L 1702.71 296.19
  A 0.66 0.66 0.0 0 1 1703.32 296.60
  Q 1705.32 301.53 1710.10 314.63
  Q 1710.28 315.12 1710.58 317.15
  Z"
/>
<path fill="#231f20" d="
  M 1797.70 308.83
  A 0.42 0.42 0.0 0 1 1798.12 309.25
  L 1798.14 315.06
  A 0.41 0.40 -90.0 0 1 1797.74 315.47
  L 1784.07 315.46
  A 0.56 0.56 0.0 0 0 1783.50 316.02
  L 1783.51 322.23
  A 0.59 0.58 -90.0 0 0 1784.09 322.83
  L 1799.64 322.82
  A 0.34 0.33 0.0 0 1 1799.98 323.15
  L 1799.97 329.11
  A 0.34 0.33 -90.0 0 1 1799.64 329.45
  L 1776.92 329.44
  A 0.62 0.62 0.0 0 1 1776.30 328.82
  L 1776.33 296.55
  A 0.39 0.38 -90.0 0 1 1776.71 296.16
  L 1798.45 296.18
  A 0.55 0.55 0.0 0 1 1799.00 296.73
  L 1799.00 302.31
  A 0.53 0.53 0.0 0 1 1798.47 302.85
  L 1784.03 302.83
  A 0.51 0.51 0.0 0 0 1783.52 303.34
  L 1783.51 308.33
  A 0.51 0.51 0.0 0 0 1784.02 308.85
  L 1797.70 308.83
  Z"
/>
<path fill="#231f20" d="
  M 1868.86 318.63
  A 0.11 0.11 0.0 0 0 1869.08 318.61
  L 1869.08 296.69
  A 0.50 0.50 0.0 0 1 1869.58 296.19
  L 1876.31 296.19
  A 0.52 0.52 0.0 0 1 1876.83 296.71
  L 1876.83 329.08
  A 0.36 0.36 0.0 0 1 1876.47 329.44
  L 1867.86 329.44
  A 0.99 0.98 -16.2 0 1 1867.03 328.99
  L 1856.44 312.69
  A 1.47 1.06 -80.8 0 1 1856.32 312.45
  Q 1854.87 308.82 1852.85 306.17
  A 0.20 0.20 0.0 0 0 1852.50 306.29
  L 1852.50 329.07
  A 0.36 0.36 0.0 0 1 1852.14 329.43
  L 1845.24 329.43
  A 0.35 0.34 -0.0 0 1 1844.89 329.09
  L 1844.89 296.61
  A 0.43 0.42 0.0 0 1 1845.32 296.19
  L 1854.65 296.19
  A 0.82 0.81 -11.4 0 1 1855.40 296.68
  C 1855.70 297.38 1856.05 298.39 1856.29 298.77
  Q 1867.26 315.59 1868.40 317.47
  Q 1868.76 318.07 1868.86 318.63
  Z"
/>
<path fill="#231f20" d="
  M 1933.03 296.19
  Q 1939.51 296.22 1945.84 296.30
  A 0.40 0.39 -90.0 0 1 1946.23 296.70
  L 1946.23 302.50
  A 0.41 0.41 0.0 0 1 1945.82 302.91
  L 1936.87 302.91
  A 0.39 0.39 0.0 0 0 1936.48 303.29
  L 1936.33 328.77
  A 0.63 0.62 -5.1 0 1 1935.81 329.38
  Q 1935.45 329.45 1932.81 329.43
  Q 1930.18 329.41 1929.81 329.34
  A 0.63 0.62 5.8 0 1 1929.30 328.72
  L 1929.49 303.24
  A 0.39 0.39 0.0 0 0 1929.10 302.86
  L 1920.15 302.74
  A 0.41 0.41 0.0 0 1 1919.75 302.33
  L 1919.82 296.53
  A 0.40 0.39 -89.3 0 1 1920.22 296.13
  Q 1926.55 296.13 1933.03 296.19
  Z"
/>
<path fill="#ffffff" d="
  M 253.02 321.98
  Q 255.96 319.45 256.37 314.20
  A 0.44 0.44 0.0 0 1 257.13 313.92
  C 260.89 317.59 261.23 323.08 257.04 326.67
  C 252.86 330.26 247.48 329.10 244.43 324.82
  A 0.44 0.44 0.0 0 1 244.82 324.12
  Q 250.07 324.51 253.02 321.98
  Z"
/>
<path fill="#ffffff" d="
  M 217.25 343.21
  Q 220.82 341.94 223.04 337.30
  A 0.43 0.43 0.0 0 1 223.82 337.30
  C 225.97 341.97 224.35 347.09 219.27 348.90
  C 214.20 350.70 209.71 347.76 208.42 342.79
  A 0.43 0.43 0.0 0 1 209.03 342.29
  Q 213.68 344.48 217.25 343.21
  Z"
/>
<path fill="#ffffff" d="
  M 178.75 354.67
  Q 182.48 353.94 185.37 349.66
  A 0.44 0.43 -35.9 0 1 186.14 349.79
  C 187.58 354.73 185.22 359.57 179.91 360.61
  C 174.61 361.65 170.60 358.07 170.05 352.95
  A 0.44 0.43 13.7 0 1 170.73 352.54
  Q 175.02 355.41 178.75 354.67
  Z"
/>
<path fill="#ffffff" d="
  M 137.50 355.91
  Q 141.29 356.03 145.05 352.52
  A 0.43 0.43 0.0 0 1 145.78 352.81
  C 146.07 357.94 142.70 362.11 137.32 361.95
  C 131.93 361.78 128.82 357.41 129.43 352.30
  A 0.43 0.43 0.0 0 1 130.18 352.06
  Q 133.71 355.80 137.50 355.91
  Z"
/>
</svg>
