<?xml version="1.0" encoding="UTF-8" standalone="no"?>
<!DOCTYPE svg PUBLIC "-//W3C//DTD SVG 1.1//EN" "http://www.w3.org/Graphics/SVG/1.1/DTD/svg11.dtd">
<svg xmlns="http://www.w3.org/2000/svg" version="1.1" viewBox="0.00 0.00 1071.00 917.00">
<g stroke-width="2.00" fill="none" stroke-linecap="butt">
<path stroke="#918f90" vector-effect="non-scaling-stroke" d="
  M 230.86 686.99
  Q 273.73 708.75 320.30 718.80
  C 341.38 723.35 362.66 725.59 383.76 724.78
  Q 479.08 721.15 555.63 665.41
  A 2.03 2.02 -62.7 0 1 556.81 665.03
  L 584.67 665.02"
/>
<path stroke="#892422" vector-effect="non-scaling-stroke" d="
  M 584.67 665.02
  L 584.72 818.22
  A 0.22 0.21 -90.0 0 0 584.93 818.44
  L 701.06 818.44
  A 0.43 0.42 90.0 0 0 701.48 818.01
  L 701.48 592.90
  A 0.60 0.59 -0.0 0 1 702.08 592.31
  L 718.75 592.31
  A 1.09 1.07 -17.1 0 1 719.64 592.77
  C 731.67 610.15 747.47 624.71 765.99 633.53
  C 789.60 644.77 817.08 650.29 843.50 651.50
  C 872.87 652.85 901.59 649.08 927.13 637.35
  C 1024.93 592.39 1061.81 473.84 1045.17 373.55
  C 1039.00 336.40 1023.78 299.60 1000.08 270.68
  Q 959.16 220.74 894.17 204.81
  Q 876.42 200.46 850.77 198.95
  Q 824.94 197.43 801.68 203.81
  C 763.97 214.16 730.73 236.15 708.66 268.98
  A 1.11 1.11 0.0 0 1 707.74 269.47
  L 691.00 269.47
  A 0.57 0.56 -90.0 0 1 690.44 268.90
  L 690.44 210.46
  A 0.53 0.53 0.0 0 0 689.91 209.93
  L 558.67 209.93
  A 0.19 0.19 0.0 0 0 558.56 210.28
  L 563.01 213.59"
/>
<path stroke="#918f90" vector-effect="non-scaling-stroke" d="
  M 563.01 213.59
  C 544.22 204.14 522.40 201.47 501.32 200.18
  C 475.23 198.58 449.10 198.53 423.61 205.38
  C 394.06 213.31 367.32 230.74 350.56 256.30
  Q 345.76 263.62 342.60 272.23
  A 0.99 0.98 55.1 0 1 340.69 271.89
  L 340.69 28.09
  A 0.61 0.60 -0.0 0 0 340.08 27.49
  L 206.60 27.49
  A 0.60 0.60 0.0 0 0 206.00 28.09
  L 206.00 664.49
  A 0.51 0.51 0.0 0 0 206.51 665.00
  L 340.42 665.00
  A 0.27 0.27 0.0 0 0 340.69 664.73
  Q 340.67 520.39 340.70 439.00
  Q 340.71 415.73 343.67 394.40
  C 348.74 357.89 368.13 328.74 407.28 324.08
  Q 425.13 321.95 440.86 325.14
  C 474.42 331.95 487.13 367.87 489.73 398.01
  C 490.94 412.02 491.43 429.17 491.43 446.35
  Q 491.44 532.19 491.43 664.59
  A 0.42 0.42 0.0 0 0 491.85 665.01
  L 521.53 665.01
  A 0.31 0.31 0.0 0 1 521.68 665.59
  Q 433.08 714.50 334.22 700.79
  C 305.61 696.82 277.12 688.47 250.97 676.11
  A 5.80 5.77 57.5 0 0 248.51 675.56
  L 230.75 675.53"
/>
<path stroke="#f79492" vector-effect="non-scaling-stroke" d="
  M 563.01 213.59
  Q 572.91 219.48 579.75 224.76
  Q 591.80 234.06 601.10 249.17
  Q 608.99 261.98 612.83 269.15
  C 624.72 291.32 630.90 316.05 634.08 341.74
  C 637.77 371.53 638.65 396.38 638.64 427.81
  Q 638.62 528.13 638.64 664.42
  A 0.61 0.61 0.0 0 1 638.03 665.03
  L 584.67 665.02"
/>
<path stroke="#918f90" vector-effect="non-scaling-stroke" d="
  M 351.90 40.13
  C 360.85 39.51 366.17 44.01 372.27 49.78
  A 0.89 0.89 0.0 0 0 373.76 49.29
  C 376.27 35.39 365.32 24.70 351.56 25.22
  A 0.40 0.40 0.0 0 0 351.18 25.62
  L 351.18 39.46
  A 0.67 0.67 0.0 0 0 351.90 40.13"
/>
<path stroke="#918f90" vector-effect="non-scaling-stroke" d="
  M 457.83 91.91
  A 0.45 0.45 0.0 0 0 458.39 91.67
  C 463.13 80.64 466.95 71.00 471.09 62.56
  C 480.14 44.12 458.84 25.56 441.82 36.48
  Q 437.57 39.20 434.49 44.21
  Q 432.57 47.32 431.76 55.19
  Q 431.08 61.89 428.14 84.38
  A 0.58 0.57 -81.7 0 0 428.61 85.02
  L 428.64 85.02
  A 0.54 0.54 0.0 0 0 429.26 84.59
  L 435.86 51.60
  A 1.09 1.05 82.5 0 1 436.42 50.86
  C 448.39 44.57 461.34 47.62 467.78 59.73
  A 0.97 0.96 -49.6 0 1 467.83 60.51
  L 457.54 91.32
  A 0.47 0.47 0.0 0 0 457.81 91.90
  L 457.83 91.91"
/>
<path stroke="#918f90" vector-effect="non-scaling-stroke" d="
  M 541.01 123.24
  A 0.45 0.45 0.0 0 0 541.61 123.11
  C 548.29 113.13 553.82 104.34 559.44 96.79
  C 571.71 80.32 554.17 58.15 535.42 65.78
  Q 530.74 67.68 526.79 72.04
  Q 524.33 74.75 522.09 82.34
  Q 520.20 88.81 513.19 110.39
  A 0.58 0.57 -71.2 0 0 513.54 111.11
  L 513.56 111.12
  A 0.54 0.54 0.0 0 0 514.25 110.81
  L 526.79 79.57
  A 1.09 1.05 -86.9 0 1 527.47 78.93
  C 540.40 74.94 552.58 80.31 556.70 93.41
  A 0.97 0.96 -39.0 0 1 556.61 94.18
  L 540.83 122.61
  A 0.47 0.47 0.0 0 0 541.00 123.23
  L 541.01 123.24"
/>
<path stroke="#918f90" vector-effect="non-scaling-stroke" d="
  M 615.63 174.57
  A 0.45 0.45 0.0 0 0 616.24 174.58
  C 625.03 166.41 632.42 159.14 639.62 153.09
  C 655.34 139.89 643.37 114.31 623.39 117.42
  Q 618.40 118.19 613.56 121.52
  Q 610.55 123.59 606.63 130.46
  Q 603.30 136.31 591.53 155.69
  A 0.58 0.57 -57.9 0 0 591.70 156.47
  L 591.72 156.48
  A 0.54 0.54 0.0 0 0 592.46 156.34
  L 611.83 128.84
  A 1.08 1.05 -73.6 0 1 612.64 128.38
  C 626.13 127.47 636.74 135.49 637.73 149.17
  A 0.97 0.96 -25.7 0 1 637.47 149.90
  L 615.60 173.92
  A 0.47 0.47 0.0 0 0 615.62 174.56
  L 615.63 174.57"
/>
<path stroke="#918f90" vector-effect="non-scaling-stroke" d="
  M 563.23 188.22
  C 502.02 142.15 428.18 121.84 351.79 127.72
  A 0.67 0.66 87.7 0 0 351.18 128.39
  L 351.18 144.32
  A 0.60 0.60 0.0 0 0 351.81 144.92
  Q 371.28 143.92 383.23 144.35
  Q 435.88 146.22 484.63 166.87
  Q 506.14 175.98 525.95 188.27
  A 2.38 2.32 60.2 0 0 527.18 188.62
  L 563.10 188.62
  A 0.22 0.22 0.0 0 0 563.23 188.22"
/>
<path stroke="#892422" vector-effect="non-scaling-stroke" d="
  M 195.28 266.95
  C 188.24 272.40 182.72 281.48 178.28 287.00
  Q 166.65 301.44 150.43 309.48
  A 0.24 0.23 37.9 0 0 150.49 309.92
  L 154.28 310.78
  A 2.45 2.45 0.0 0 0 155.65 310.68
  C 164.41 307.40 175.10 308.41 181.28 308.41
  C 185.17 308.41 191.88 307.58 195.11 305.19
  A 1.15 1.13 72.1 0 0 195.57 304.27
  L 195.57 267.08
  A 0.18 0.17 -19.4 0 0 195.28 266.95"
/>
<path stroke="#918f90" vector-effect="non-scaling-stroke" d="
  M 422.40 439.11
  L 480.10 415.17
  A 0.30 0.29 -12.5 0 0 480.29 414.88
  L 479.79 405.81
  A 0.13 0.12 76.9 0 0 479.62 405.70
  L 384.76 449.18
  A 1.51 1.49 38.7 0 1 383.78 449.28
  L 357.22 443.25
  A 0.32 0.32 0.0 0 1 357.10 442.69
  C 357.54 442.35 358.61 442.22 359.47 441.67
  Q 380.96 427.90 399.83 411.34
  C 417.29 396.03 437.23 373.23 437.77 349.48
  Q 437.95 341.43 437.81 335.68
  A 0.67 0.66 1.9 0 0 437.20 335.03
  L 437.17 335.02
  A 0.69 0.69 0.0 0 0 436.42 335.62
  C 432.61 364.72 415.95 390.50 392.18 407.69
  Q 373.53 421.19 351.89 431.87
  A 1.20 1.19 -13.2 0 0 351.22 432.94
  Q 351.16 446.82 351.18 469.83
  C 351.19 472.17 351.60 474.45 352.06 476.47
  Q 397.08 673.10 402.17 695.22
  A 0.87 0.86 80.1 0 0 403.10 695.88
  L 416.89 694.36
  A 0.27 0.27 0.0 0 0 417.12 694.02
  L 358.37 466.82
  A 0.14 0.14 0.0 0 1 358.63 466.71
  L 472.78 679.26
  A 0.43 0.43 0.0 0 0 473.33 679.45
  L 487.55 672.93
  A 0.39 0.39 0.0 0 0 487.73 672.38
  L 373.60 473.56
  A 0.13 0.13 0.0 0 1 373.81 473.40
  L 480.50 586.60
  A 0.24 0.24 0.0 0 0 480.92 586.43
  L 480.92 568.67
  A 1.45 1.45 0.0 0 0 480.52 567.67
  L 385.38 470.05
  A 0.14 0.14 0.0 0 1 385.55 469.84
  L 480.56 530.68
  A 0.24 0.24 0.0 0 0 480.93 530.48
  L 480.93 515.90
  A 0.75 0.75 0.0 0 0 480.57 515.26
  L 403.03 466.56
  A 0.15 0.15 0.0 0 1 403.16 466.29
  L 480.57 493.83
  A 0.27 0.27 0.0 0 0 480.93 493.58
  L 480.93 482.70
  A 0.89 0.89 0.0 0 0 480.31 481.85
  L 412.70 460.69
  A 0.19 0.19 0.0 0 1 412.76 460.32
  L 480.70 465.14
  A 0.21 0.21 0.0 0 0 480.92 464.93
  L 480.92 456.44
  A 0.27 0.27 0.0 0 0 480.67 456.17
  L 410.61 451.77
  A 0.19 0.19 0.0 0 1 410.59 451.39
  L 480.25 440.64
  A 0.74 0.73 86.0 0 0 480.88 439.91
  L 480.88 430.12
  A 0.55 0.55 0.0 0 0 480.24 429.58
  L 422.50 439.46
  A 0.18 0.18 0.0 0 1 422.40 439.11"
/>
<path stroke="#918f90" vector-effect="non-scaling-stroke" d="
  M 94.40 550.95
  C 95.93 552.87 96.03 559.07 95.80 561.52
  C 95.01 569.96 93.65 577.39 95.71 582.21
  A 0.51 0.51 0.0 0 0 96.45 582.44
  Q 99.15 580.74 101.38 578.66
  C 112.21 568.56 118.82 552.59 111.93 538.67
  C 108.36 531.46 102.12 523.96 94.86 519.69
  Q 90.01 516.84 83.94 517.46
  A 5.60 5.53 -56.6 0 0 82.90 517.68
  Q 77.70 519.29 75.51 519.36
  C 67.75 519.60 59.05 518.14 51.93 524.05
  A 0.53 0.52 -47.9 0 0 51.97 524.89
  Q 52.40 525.17 52.61 525.18
  C 56.57 525.33 70.11 525.99 72.13 531.05
  A 1.08 1.08 0.0 0 1 71.38 532.49
  C 62.96 534.53 56.44 541.49 58.44 550.67
  C 60.54 560.32 73.55 574.46 84.36 569.26
  C 90.79 566.17 93.68 557.96 93.91 551.11
  A 0.28 0.27 26.7 0 1 94.40 550.95"
/>
<path stroke="#918f90" vector-effect="non-scaling-stroke" d="
  M 274.98 676.40
  Q 275.03 676.14 275.03 676.02
  A 0.52 0.51 0.2 0 0 274.52 675.52
  Q 271.04 675.47 271.02 675.57
  Q 271.00 675.66 274.21 677.02
  A 0.52 0.51 23.5 0 0 274.87 676.76
  Q 274.92 676.66 274.98 676.40"
/>
<path stroke="#918f90" vector-effect="non-scaling-stroke" d="
  M 334.48 675.49
  A 0.41 0.41 0.0 0 0 334.07 675.90
  L 334.07 693.16
  A 0.41 0.41 0.0 0 0 334.37 693.55
  L 346.11 696.72
  A 0.41 0.41 0.0 0 0 346.63 696.32
  L 346.63 675.90
  A 0.41 0.41 0.0 0 0 346.22 675.49
  L 334.48 675.49"
/>
<path stroke="#918f90" vector-effect="non-scaling-stroke" d="
  M 500.18 737.83
  A 0.45 0.45 0.0 0 0 499.86 738.36
  C 502.55 750.14 505.16 760.25 506.80 769.57
  C 510.38 789.93 538.71 792.40 546.08 773.42
  Q 547.92 768.68 547.46 762.78
  Q 547.18 759.12 543.16 752.24
  Q 539.75 746.38 528.79 726.35
  A 0.58 0.57 62.2 0 0 528.03 726.10
  L 528.01 726.12
  A 0.54 0.54 0.0 0 0 527.76 726.83
  L 541.95 757.58
  A 1.09 1.06 46.4 0 1 541.95 758.52
  C 535.94 770.74 523.59 775.94 511.17 769.90
  A 0.98 0.97 -85.7 0 1 510.67 769.31
  L 500.76 738.13
  A 0.47 0.47 0.0 0 0 500.19 737.83
  L 500.18 737.83"
/>
<path stroke="#918f90" vector-effect="non-scaling-stroke" d="
  M 410.69 761.91
  A 0.47 0.46 81.3 0 0 410.32 762.42
  Q 410.92 767.98 412.72 786.31
  Q 413.76 796.99 414.03 798.03
  C 420.07 821.40 453.98 818.05 454.73 793.29
  Q 454.85 789.27 451.53 781.60
  Q 449.56 777.05 440.47 754.15
  A 0.54 0.53 -19.3 0 0 439.81 753.84
  L 439.53 753.93
  A 0.33 0.32 -17.6 0 0 439.32 754.33
  L 450.03 787.73
  A 0.97 0.94 -37.3 0 1 449.90 788.58
  C 442.19 799.70 429.24 802.88 417.74 795.09
  A 1.29 1.28 11.6 0 1 417.19 794.26
  L 411.15 761.98
  A 0.15 0.14 78.3 0 0 410.98 761.86
  L 410.69 761.91"
/>
<path stroke="#918f90" vector-effect="non-scaling-stroke" d="
  M 318.93 760.39
  A 0.47 0.46 -85.6 0 0 318.45 760.80
  Q 317.78 766.35 315.40 784.60
  Q 314.01 795.24 314.04 796.31
  C 314.65 820.42 348.42 824.80 354.73 800.87
  Q 355.75 796.98 354.25 788.77
  Q 353.36 783.89 349.67 759.55
  A 0.54 0.53 -6.3 0 0 349.10 759.10
  L 348.80 759.12
  A 0.33 0.32 -4.5 0 0 348.51 759.47
  L 351.41 794.40
  A 0.97 0.94 -24.3 0 1 351.09 795.19
  C 341.08 804.28 327.75 804.46 318.31 794.28
  A 1.29 1.28 24.6 0 1 317.96 793.35
  L 319.36 760.56
  A 0.15 0.14 -88.6 0 0 319.22 760.41
  L 318.93 760.39"
/>
<path stroke="#892422" vector-effect="non-scaling-stroke" d="
  M 690.47 425.25
  C 690.45 465.02 704.21 504.92 737.50 528.83
  C 758.95 544.23 784.57 550.15 811.31 550.16
  C 838.05 550.17 863.68 544.26 885.13 528.87
  C 918.44 504.99 932.22 465.10 932.23 425.33
  C 932.25 385.56 918.49 345.66 885.20 321.75
  C 863.75 306.35 838.13 300.43 811.39 300.42
  C 784.65 300.41 759.02 306.32 737.57 321.70
  C 704.26 345.59 690.48 385.48 690.47 425.25"
/>
<path stroke="#918f90" vector-effect="non-scaling-stroke" d="
  M 720.62 377.49
  L 749.70 370.50
  A 0.96 0.93 -30.2 0 1 750.54 370.71
  C 760.55 379.68 761.70 392.99 752.39 403.06
  A 1.90 1.86 17.5 0 1 751.22 403.65
  L 721.52 406.93
  A 0.17 0.16 80.5 0 0 721.38 407.13
  L 721.47 407.50
  A 0.39 0.39 0.0 0 0 721.86 407.80
  Q 742.90 407.16 749.70 407.11
  Q 757.45 407.06 760.97 405.50
  C 782.14 396.12 775.31 366.17 752.26 366.22
  Q 749.93 366.22 748.16 367.01
  Q 746.70 367.66 745.87 367.93
  Q 724.26 374.72 721.71 375.58
  A 2.10 2.10 0.0 0 0 720.66 376.39
  L 720.27 376.98
  A 0.33 0.33 0.0 0 0 720.62 377.49"
/>
<path stroke="#918f90" vector-effect="non-scaling-stroke" d="
  M 729.60 490.77
  L 731.10 492.62
  A 0.88 0.85 76.9 0 0 731.55 492.91
  L 745.87 496.78
  A 1.67 1.42 49.7 0 0 746.17 496.83
  Q 757.59 497.82 764.54 490.37
  C 769.38 485.19 771.23 477.56 769.15 470.87
  Q 765.79 460.02 754.22 456.68
  Q 752.42 456.16 748.94 456.35
  Q 733.06 457.24 715.65 457.91
  A 0.29 0.29 0.0 0 0 715.37 458.20
  L 715.36 458.52
  A 0.54 0.53 2.1 0 0 715.88 459.07
  L 750.44 459.99
  A 1.13 1.13 0.0 0 1 751.39 460.57
  Q 761.54 479.34 745.30 491.72
  A 3.22 3.21 -59.1 0 1 742.86 492.34
  L 729.84 490.34
  A 0.26 0.26 0.0 0 0 729.60 490.77"
/>
</g>
<path fill="#231f20" d="
  M 230.86 686.99
  Q 273.73 708.75 320.30 718.80
  C 341.38 723.35 362.66 725.59 383.76 724.78
  Q 479.08 721.15 555.63 665.41
  A 2.03 2.02 -62.7 0 1 556.81 665.03
  L 584.67 665.02
  L 584.72 818.22
  A 0.22 0.21 -90.0 0 0 584.93 818.44
  L 701.06 818.44
  A 0.43 0.42 90.0 0 0 701.48 818.01
  L 701.48 592.90
  A 0.60 0.59 -0.0 0 1 702.08 592.31
  L 718.75 592.31
  A 1.09 1.07 -17.1 0 1 719.64 592.77
  C 731.67 610.15 747.47 624.71 765.99 633.53
  C 789.60 644.77 817.08 650.29 843.50 651.50
  C 872.87 652.85 901.59 649.08 927.13 637.35
  C 1024.93 592.39 1061.81 473.84 1045.17 373.55
  C 1039.00 336.40 1023.78 299.60 1000.08 270.68
  Q 959.16 220.74 894.17 204.81
  Q 876.42 200.46 850.77 198.95
  Q 824.94 197.43 801.68 203.81
  C 763.97 214.16 730.73 236.15 708.66 268.98
  A 1.11 1.11 0.0 0 1 707.74 269.47
  L 691.00 269.47
  A 0.57 0.56 -90.0 0 1 690.44 268.90
  L 690.44 210.46
  A 0.53 0.53 0.0 0 0 689.91 209.93
  L 558.67 209.93
  A 0.19 0.19 0.0 0 0 558.56 210.28
  L 563.01 213.59
  C 544.22 204.14 522.40 201.47 501.32 200.18
  C 475.23 198.58 449.10 198.53 423.61 205.38
  C 394.06 213.31 367.32 230.74 350.56 256.30
  Q 345.76 263.62 342.60 272.23
  A 0.99 0.98 55.1 0 1 340.69 271.89
  L 340.69 28.09
  A 0.61 0.60 -0.0 0 0 340.08 27.49
  L 206.60 27.49
  A 0.60 0.60 0.0 0 0 206.00 28.09
  L 206.00 664.49
  A 0.51 0.51 0.0 0 0 206.51 665.00
  L 340.42 665.00
  A 0.27 0.27 0.0 0 0 340.69 664.73
  Q 340.67 520.39 340.70 439.00
  Q 340.71 415.73 343.67 394.40
  C 348.74 357.89 368.13 328.74 407.28 324.08
  Q 425.13 321.95 440.86 325.14
  C 474.42 331.95 487.13 367.87 489.73 398.01
  C 490.94 412.02 491.43 429.17 491.43 446.35
  Q 491.44 532.19 491.43 664.59
  A 0.42 0.42 0.0 0 0 491.85 665.01
  L 521.53 665.01
  A 0.31 0.31 0.0 0 1 521.68 665.59
  Q 433.08 714.50 334.22 700.79
  C 305.61 696.82 277.12 688.47 250.97 676.11
  A 5.80 5.77 57.5 0 0 248.51 675.56
  L 230.75 675.53
  L 196.05 675.46
  A 0.48 0.48 0.0 0 1 195.57 674.98
  L 195.57 583.79
  A 0.15 0.15 0.0 0 0 195.31 583.68
  Q 183.50 595.21 174.20 603.94
  C 154.42 622.51 136.42 604.62 114.96 598.12
  C 107.66 595.91 101.19 596.48 93.98 599.45
  C 88.47 601.72 81.09 605.01 74.53 603.25
  Q 66.86 601.19 62.28 597.42
  Q 49.23 586.68 38.68 572.08
  C 25.14 553.33 31.32 530.56 38.33 510.82
  Q 67.38 428.91 103.98 348.68
  Q 104.60 347.33 105.16 345.54
  Q 105.72 343.77 106.21 342.36
  Q 111.36 327.34 117.50 311.33
  A 3.53 3.49 55.6 0 0 117.74 310.00
  Q 117.71 307.66 117.15 289.51
  C 117.08 287.11 117.39 285.35 118.57 283.10
  Q 146.00 231.00 194.72 197.28
  A 1.99 1.98 72.7 0 0 195.57 195.65
  L 195.57 181.33
  A 0.19 0.19 0.0 0 0 195.27 181.17
  Q 162.04 203.51 136.79 233.56
  A 0.42 0.42 0.0 0 1 136.13 233.54
  Q 131.42 227.23 129.85 225.38
  C 97.49 187.18 45.21 189.68 1.59 202.40
  A 0.68 0.67 11.2 0 1 0.87 201.33
  Q 25.38 171.07 58.13 150.15
  Q 70.19 142.44 83.39 139.04
  A 0.25 0.25 0.0 0 0 83.39 138.55
  Q 73.36 136.14 63.11 137.76
  A 0.25 0.25 0.0 0 1 62.84 137.40
  C 69.37 124.44 81.62 112.89 93.47 103.92
  C 121.87 82.40 154.41 65.59 186.71 50.00
  Q 190.61 48.12 194.94 41.70
  Q 195.58 40.74 195.57 37.52
  Q 195.53 27.46 195.59 17.64
  A 0.57 0.57 0.0 0 1 196.16 17.07
  L 291.38 17.07
  A 0.64 0.64 0.0 0 0 292.02 16.44
  Q 292.12 8.52 298.62 5.56
  A 5.22 4.68 -59.4 0 1 299.79 5.19
  Q 303.07 4.58 313.61 2.87
  C 323.76 1.22 325.68 9.28 329.04 16.51
  A 0.85 0.85 0.0 0 0 329.78 17.00
  Q 337.04 17.29 353.50 16.48
  Q 371.39 15.60 395.76 16.15
  A 0.64 0.64 0.0 0 0 396.39 15.69
  Q 396.97 13.79 399.33 7.57
  Q 401.15 2.77 405.29 0.99
  Q 407.97 -0.16 414.27 0.55
  Q 423.84 1.62 424.10 1.65
  C 433.84 2.85 433.21 11.89 434.64 19.21
  A 0.50 0.49 -1.6 0 0 435.06 19.60
  Q 468.96 24.20 501.51 34.46
  A 0.87 0.86 28.5 0 0 502.44 34.19
  C 504.64 31.52 506.79 27.41 509.41 25.44
  Q 514.23 21.83 520.31 24.17
  Q 526.08 26.40 529.57 27.65
  Q 535.06 29.62 536.74 31.87
  C 540.17 36.51 538.56 41.77 538.08 47.36
  A 0.79 0.78 -76.4 0 0 538.55 48.14
  Q 567.39 60.42 594.22 77.11
  A 0.82 0.81 -50.5 0 0 595.21 77.01
  C 600.17 72.33 603.50 68.27 609.61 68.32
  Q 611.98 68.34 616.35 71.31
  Q 625.15 77.28 625.73 77.63
  A 3.55 3.31 83.8 0 1 626.61 78.39
  C 631.64 84.49 628.29 90.47 625.30 97.80
  A 0.75 0.74 -60.7 0 0 625.54 98.67
  Q 651.98 118.74 674.64 142.45
  A 0.97 0.97 0.0 0 0 675.78 142.64
  Q 680.81 140.06 684.75 138.33
  Q 690.73 135.71 695.93 139.07
  A 4.11 4.00 -2.6 0 1 696.92 139.95
  Q 703.11 147.64 704.40 149.08
  C 711.77 157.29 705.54 163.86 699.93 170.35
  A 0.80 0.79 -43.8 0 0 699.90 171.36
  Q 716.08 191.68 730.18 214.86
  A 0.51 0.50 -33.6 0 0 730.91 215.00
  Q 764.50 190.67 802.95 181.72
  Q 819.43 177.88 839.25 177.72
  C 896.96 177.25 953.27 195.95 995.74 235.26
  C 1033.42 270.14 1057.38 318.41 1065.82 368.99
  C 1078.10 442.48 1064.75 519.87 1022.93 582.10
  Q 997.88 619.36 960.38 643.32
  Q 921.06 668.43 874.11 672.09
  Q 829.50 675.58 786.01 663.51
  Q 761.64 656.74 742.01 644.23
  A 2.01 1.99 -28.8 0 0 740.89 643.91
  C 735.28 643.94 731.05 642.15 725.28 640.05
  A 0.74 0.73 27.5 0 0 724.44 640.31
  Q 723.13 642.10 722.67 643.77
  A 2.57 2.52 -38.0 0 0 722.58 644.44
  L 722.58 839.08
  A 0.50 0.49 -0.0 0 1 722.08 839.57
  L 564.08 839.57
  A 0.51 0.51 0.0 0 1 563.57 839.06
  L 563.57 785.95
  A 0.23 0.23 0.0 0 0 563.24 785.75
  Q 539.76 797.91 514.97 807.03
  A 0.84 0.84 0.0 0 0 514.43 807.95
  C 515.34 813.78 516.54 819.97 512.86 824.36
  Q 511.34 826.18 506.89 827.63
  Q 499.02 830.19 496.55 830.99
  A 4.19 4.06 -54.6 0 1 495.53 831.18
  C 487.67 831.70 484.37 824.42 481.05 818.52
  A 0.82 0.82 0.0 0 0 480.13 818.13
  Q 445.52 827.52 409.87 830.74
  A 0.75 0.74 -88.0 0 0 409.20 831.37
  C 407.73 840.78 407.64 847.81 396.51 848.15
  Q 394.81 848.20 386.27 848.78
  A 4.34 4.32 48.7 0 1 385.10 848.70
  Q 379.67 847.56 377.60 842.33
  Q 375.89 838.01 374.75 833.21
  A 0.98 0.98 0.0 0 0 373.77 832.45
  Q 339.54 833.36 307.36 830.39
  A 0.88 0.88 0.0 0 0 306.52 830.83
  C 304.36 834.62 303.70 837.78 299.05 839.30
  Q 296.56 840.11 291.43 838.92
  C 283.61 837.10 276.35 838.29 275.74 826.89
  A 1.62 1.62 0.0 0 0 274.43 825.39
  Q 253.55 821.27 232.41 813.44
  A 0.58 0.57 -81.3 0 1 232.03 812.91
  L 228.59 686.80
  A 0.43 0.43 0.0 0 1 229.08 686.36
  Q 230.02 686.49 230.86 686.99
  Z
  M 351.90 40.13
  C 360.85 39.51 366.17 44.01 372.27 49.78
  A 0.89 0.89 0.0 0 0 373.76 49.29
  C 376.27 35.39 365.32 24.70 351.56 25.22
  A 0.40 0.40 0.0 0 0 351.18 25.62
  L 351.18 39.46
  A 0.67 0.67 0.0 0 0 351.90 40.13
  Z
  M 457.83 91.91
  A 0.45 0.45 0.0 0 0 458.39 91.67
  C 463.13 80.64 466.95 71.00 471.09 62.56
  C 480.14 44.12 458.84 25.56 441.82 36.48
  Q 437.57 39.20 434.49 44.21
  Q 432.57 47.32 431.76 55.19
  Q 431.08 61.89 428.14 84.38
  A 0.58 0.57 -81.7 0 0 428.61 85.02
  L 428.64 85.02
  A 0.54 0.54 0.0 0 0 429.26 84.59
  L 435.86 51.60
  A 1.09 1.05 82.5 0 1 436.42 50.86
  C 448.39 44.57 461.34 47.62 467.78 59.73
  A 0.97 0.96 -49.6 0 1 467.83 60.51
  L 457.54 91.32
  A 0.47 0.47 0.0 0 0 457.81 91.90
  L 457.83 91.91
  Z
  M 541.01 123.24
  A 0.45 0.45 0.0 0 0 541.61 123.11
  C 548.29 113.13 553.82 104.34 559.44 96.79
  C 571.71 80.32 554.17 58.15 535.42 65.78
  Q 530.74 67.68 526.79 72.04
  Q 524.33 74.75 522.09 82.34
  Q 520.20 88.81 513.19 110.39
  A 0.58 0.57 -71.2 0 0 513.54 111.11
  L 513.56 111.12
  A 0.54 0.54 0.0 0 0 514.25 110.81
  L 526.79 79.57
  A 1.09 1.05 -86.9 0 1 527.47 78.93
  C 540.40 74.94 552.58 80.31 556.70 93.41
  A 0.97 0.96 -39.0 0 1 556.61 94.18
  L 540.83 122.61
  A 0.47 0.47 0.0 0 0 541.00 123.23
  L 541.01 123.24
  Z
  M 615.63 174.57
  A 0.45 0.45 0.0 0 0 616.24 174.58
  C 625.03 166.41 632.42 159.14 639.62 153.09
  C 655.34 139.89 643.37 114.31 623.39 117.42
  Q 618.40 118.19 613.56 121.52
  Q 610.55 123.59 606.63 130.46
  Q 603.30 136.31 591.53 155.69
  A 0.58 0.57 -57.9 0 0 591.70 156.47
  L 591.72 156.48
  A 0.54 0.54 0.0 0 0 592.46 156.34
  L 611.83 128.84
  A 1.08 1.05 -73.6 0 1 612.64 128.38
  C 626.13 127.47 636.74 135.49 637.73 149.17
  A 0.97 0.96 -25.7 0 1 637.47 149.90
  L 615.60 173.92
  A 0.47 0.47 0.0 0 0 615.62 174.56
  L 615.63 174.57
  Z
  M 563.23 188.22
  C 502.02 142.15 428.18 121.84 351.79 127.72
  A 0.67 0.66 87.7 0 0 351.18 128.39
  L 351.18 144.32
  A 0.60 0.60 0.0 0 0 351.81 144.92
  Q 371.28 143.92 383.23 144.35
  Q 435.88 146.22 484.63 166.87
  Q 506.14 175.98 525.95 188.27
  A 2.38 2.32 60.2 0 0 527.18 188.62
  L 563.10 188.62
  A 0.22 0.22 0.0 0 0 563.23 188.22
  Z
  M 195.28 266.95
  C 188.24 272.40 182.72 281.48 178.28 287.00
  Q 166.65 301.44 150.43 309.48
  A 0.24 0.23 37.9 0 0 150.49 309.92
  L 154.28 310.78
  A 2.45 2.45 0.0 0 0 155.65 310.68
  C 164.41 307.40 175.10 308.41 181.28 308.41
  C 185.17 308.41 191.88 307.58 195.11 305.19
  A 1.15 1.13 72.1 0 0 195.57 304.27
  L 195.57 267.08
  A 0.18 0.17 -19.4 0 0 195.28 266.95
  Z
  M 422.40 439.11
  L 480.10 415.17
  A 0.30 0.29 -12.5 0 0 480.29 414.88
  L 479.79 405.81
  A 0.13 0.12 76.9 0 0 479.62 405.70
  L 384.76 449.18
  A 1.51 1.49 38.7 0 1 383.78 449.28
  L 357.22 443.25
  A 0.32 0.32 0.0 0 1 357.10 442.69
  C 357.54 442.35 358.61 442.22 359.47 441.67
  Q 380.96 427.90 399.83 411.34
  C 417.29 396.03 437.23 373.23 437.77 349.48
  Q 437.95 341.43 437.81 335.68
  A 0.67 0.66 1.9 0 0 437.20 335.03
  L 437.17 335.02
  A 0.69 0.69 0.0 0 0 436.42 335.62
  C 432.61 364.72 415.95 390.50 392.18 407.69
  Q 373.53 421.19 351.89 431.87
  A 1.20 1.19 -13.2 0 0 351.22 432.94
  Q 351.16 446.82 351.18 469.83
  C 351.19 472.17 351.60 474.45 352.06 476.47
  Q 397.08 673.10 402.17 695.22
  A 0.87 0.86 80.1 0 0 403.10 695.88
  L 416.89 694.36
  A 0.27 0.27 0.0 0 0 417.12 694.02
  L 358.37 466.82
  A 0.14 0.14 0.0 0 1 358.63 466.71
  L 472.78 679.26
  A 0.43 0.43 0.0 0 0 473.33 679.45
  L 487.55 672.93
  A 0.39 0.39 0.0 0 0 487.73 672.38
  L 373.60 473.56
  A 0.13 0.13 0.0 0 1 373.81 473.40
  L 480.50 586.60
  A 0.24 0.24 0.0 0 0 480.92 586.43
  L 480.92 568.67
  A 1.45 1.45 0.0 0 0 480.52 567.67
  L 385.38 470.05
  A 0.14 0.14 0.0 0 1 385.55 469.84
  L 480.56 530.68
  A 0.24 0.24 0.0 0 0 480.93 530.48
  L 480.93 515.90
  A 0.75 0.75 0.0 0 0 480.57 515.26
  L 403.03 466.56
  A 0.15 0.15 0.0 0 1 403.16 466.29
  L 480.57 493.83
  A 0.27 0.27 0.0 0 0 480.93 493.58
  L 480.93 482.70
  A 0.89 0.89 0.0 0 0 480.31 481.85
  L 412.70 460.69
  A 0.19 0.19 0.0 0 1 412.76 460.32
  L 480.70 465.14
  A 0.21 0.21 0.0 0 0 480.92 464.93
  L 480.92 456.44
  A 0.27 0.27 0.0 0 0 480.67 456.17
  L 410.61 451.77
  A 0.19 0.19 0.0 0 1 410.59 451.39
  L 480.25 440.64
  A 0.74 0.73 86.0 0 0 480.88 439.91
  L 480.88 430.12
  A 0.55 0.55 0.0 0 0 480.24 429.58
  L 422.50 439.46
  A 0.18 0.18 0.0 0 1 422.40 439.11
  Z
  M 94.40 550.95
  C 95.93 552.87 96.03 559.07 95.80 561.52
  C 95.01 569.96 93.65 577.39 95.71 582.21
  A 0.51 0.51 0.0 0 0 96.45 582.44
  Q 99.15 580.74 101.38 578.66
  C 112.21 568.56 118.82 552.59 111.93 538.67
  C 108.36 531.46 102.12 523.96 94.86 519.69
  Q 90.01 516.84 83.94 517.46
  A 5.60 5.53 -56.6 0 0 82.90 517.68
  Q 77.70 519.29 75.51 519.36
  C 67.75 519.60 59.05 518.14 51.93 524.05
  A 0.53 0.52 -47.9 0 0 51.97 524.89
  Q 52.40 525.17 52.61 525.18
  C 56.57 525.33 70.11 525.99 72.13 531.05
  A 1.08 1.08 0.0 0 1 71.38 532.49
  C 62.96 534.53 56.44 541.49 58.44 550.67
  C 60.54 560.32 73.55 574.46 84.36 569.26
  C 90.79 566.17 93.68 557.96 93.91 551.11
  A 0.28 0.27 26.7 0 1 94.40 550.95
  Z
  M 274.98 676.40
  Q 275.03 676.14 275.03 676.02
  A 0.52 0.51 0.2 0 0 274.52 675.52
  Q 271.04 675.47 271.02 675.57
  Q 271.00 675.66 274.21 677.02
  A 0.52 0.51 23.5 0 0 274.87 676.76
  Q 274.92 676.66 274.98 676.40
  Z
  M 334.48 675.49
  A 0.41 0.41 0.0 0 0 334.07 675.90
  L 334.07 693.16
  A 0.41 0.41 0.0 0 0 334.37 693.55
  L 346.11 696.72
  A 0.41 0.41 0.0 0 0 346.63 696.32
  L 346.63 675.90
  A 0.41 0.41 0.0 0 0 346.22 675.49
  L 334.48 675.49
  Z
  M 500.18 737.83
  A 0.45 0.45 0.0 0 0 499.86 738.36
  C 502.55 750.14 505.16 760.25 506.80 769.57
  C 510.38 789.93 538.71 792.40 546.08 773.42
  Q 547.92 768.68 547.46 762.78
  Q 547.18 759.12 543.16 752.24
  Q 539.75 746.38 528.79 726.35
  A 0.58 0.57 62.2 0 0 528.03 726.10
  L 528.01 726.12
  A 0.54 0.54 0.0 0 0 527.76 726.83
  L 541.95 757.58
  A 1.09 1.06 46.4 0 1 541.95 758.52
  C 535.94 770.74 523.59 775.94 511.17 769.90
  A 0.98 0.97 -85.7 0 1 510.67 769.31
  L 500.76 738.13
  A 0.47 0.47 0.0 0 0 500.19 737.83
  L 500.18 737.83
  Z
  M 410.69 761.91
  A 0.47 0.46 81.3 0 0 410.32 762.42
  Q 410.92 767.98 412.72 786.31
  Q 413.76 796.99 414.03 798.03
  C 420.07 821.40 453.98 818.05 454.73 793.29
  Q 454.85 789.27 451.53 781.60
  Q 449.56 777.05 440.47 754.15
  A 0.54 0.53 -19.3 0 0 439.81 753.84
  L 439.53 753.93
  A 0.33 0.32 -17.6 0 0 439.32 754.33
  L 450.03 787.73
  A 0.97 0.94 -37.3 0 1 449.90 788.58
  C 442.19 799.70 429.24 802.88 417.74 795.09
  A 1.29 1.28 11.6 0 1 417.19 794.26
  L 411.15 761.98
  A 0.15 0.14 78.3 0 0 410.98 761.86
  L 410.69 761.91
  Z
  M 318.93 760.39
  A 0.47 0.46 -85.6 0 0 318.45 760.80
  Q 317.78 766.35 315.40 784.60
  Q 314.01 795.24 314.04 796.31
  C 314.65 820.42 348.42 824.80 354.73 800.87
  Q 355.75 796.98 354.25 788.77
  Q 353.36 783.89 349.67 759.55
  A 0.54 0.53 -6.3 0 0 349.10 759.10
  L 348.80 759.12
  A 0.33 0.32 -4.5 0 0 348.51 759.47
  L 351.41 794.40
  A 0.97 0.94 -24.3 0 1 351.09 795.19
  C 341.08 804.28 327.75 804.46 318.31 794.28
  A 1.29 1.28 24.6 0 1 317.96 793.35
  L 319.36 760.56
  A 0.15 0.14 -88.6 0 0 319.22 760.41
  L 318.93 760.39
  Z"
/>
<path fill="#ffffff" d="
  M 351.18 39.46
  L 351.18 25.62
  A 0.40 0.40 0.0 0 1 351.56 25.22
  C 365.32 24.70 376.27 35.39 373.76 49.29
  A 0.89 0.89 0.0 0 1 372.27 49.78
  C 366.17 44.01 360.85 39.51 351.90 40.13
  A 0.67 0.67 0.0 0 1 351.18 39.46
  Z"
/>
<path fill="#ffffff" d="
  M 563.01 213.59
  Q 572.91 219.48 579.75 224.76
  Q 591.80 234.06 601.10 249.17
  Q 608.99 261.98 612.83 269.15
  C 624.72 291.32 630.90 316.05 634.08 341.74
  C 637.77 371.53 638.65 396.38 638.64 427.81
  Q 638.62 528.13 638.64 664.42
  A 0.61 0.61 0.0 0 1 638.03 665.03
  L 584.67 665.02
  L 556.81 665.03
  A 2.03 2.02 -62.7 0 0 555.63 665.41
  Q 479.08 721.15 383.76 724.78
  C 362.66 725.59 341.38 723.35 320.30 718.80
  Q 273.73 708.75 230.86 686.99
  L 230.75 675.53
  L 248.51 675.56
  A 5.80 5.77 57.5 0 1 250.97 676.11
  C 277.12 688.47 305.61 696.82 334.22 700.79
  Q 433.08 714.50 521.68 665.59
  A 0.31 0.31 0.0 0 0 521.53 665.01
  L 491.85 665.01
  A 0.42 0.42 0.0 0 1 491.43 664.59
  Q 491.44 532.19 491.43 446.35
  C 491.43 429.17 490.94 412.02 489.73 398.01
  C 487.13 367.87 474.42 331.95 440.86 325.14
  Q 425.13 321.95 407.28 324.08
  C 368.13 328.74 348.74 357.89 343.67 394.40
  Q 340.71 415.73 340.70 439.00
  Q 340.67 520.39 340.69 664.73
  A 0.27 0.27 0.0 0 1 340.42 665.00
  L 206.51 665.00
  A 0.51 0.51 0.0 0 1 206.00 664.49
  L 206.00 28.09
  A 0.60 0.60 0.0 0 1 206.60 27.49
  L 340.08 27.49
  A 0.61 0.60 -0.0 0 1 340.69 28.09
  L 340.69 271.89
  A 0.99 0.98 55.1 0 0 342.60 272.23
  Q 345.76 263.62 350.56 256.30
  C 367.32 230.74 394.06 213.31 423.61 205.38
  C 449.10 198.53 475.23 198.58 501.32 200.18
  C 522.40 201.47 544.22 204.14 563.01 213.59
  Z"
/>
<path fill="#ffffff" d="
  M 457.83 91.91
  L 457.81 91.90
  A 0.47 0.47 0.0 0 1 457.54 91.32
  L 467.83 60.51
  A 0.97 0.96 -49.6 0 0 467.78 59.73
  C 461.34 47.62 448.39 44.57 436.42 50.86
  A 1.09 1.05 82.5 0 0 435.86 51.60
  L 429.26 84.59
  A 0.54 0.54 0.0 0 1 428.64 85.02
  L 428.61 85.02
  A 0.58 0.57 -81.7 0 1 428.14 84.38
  Q 431.08 61.89 431.76 55.19
  Q 432.57 47.32 434.49 44.21
  Q 437.57 39.20 441.82 36.48
  C 458.84 25.56 480.14 44.12 471.09 62.56
  C 466.95 71.00 463.13 80.64 458.39 91.67
  A 0.45 0.45 0.0 0 1 457.83 91.91
  Z"
/>
<path fill="#ffffff" d="
  M 541.01 123.24
  L 541.00 123.23
  A 0.47 0.47 0.0 0 1 540.83 122.61
  L 556.61 94.18
  A 0.97 0.96 -39.0 0 0 556.70 93.41
  C 552.58 80.31 540.40 74.94 527.47 78.93
  A 1.09 1.05 -86.9 0 0 526.79 79.57
  L 514.25 110.81
  A 0.54 0.54 0.0 0 1 513.56 111.12
  L 513.54 111.11
  A 0.58 0.57 -71.2 0 1 513.19 110.39
  Q 520.20 88.81 522.09 82.34
  Q 524.33 74.75 526.79 72.04
  Q 530.74 67.68 535.42 65.78
  C 554.17 58.15 571.71 80.32 559.44 96.79
  C 553.82 104.34 548.29 113.13 541.61 123.11
  A 0.45 0.45 0.0 0 1 541.01 123.24
  Z"
/>
<path fill="#ffffff" d="
  M 615.63 174.57
  L 615.62 174.56
  A 0.47 0.47 0.0 0 1 615.60 173.92
  L 637.47 149.90
  A 0.97 0.96 -25.7 0 0 637.73 149.17
  C 636.74 135.49 626.13 127.47 612.64 128.38
  A 1.08 1.05 -73.6 0 0 611.83 128.84
  L 592.46 156.34
  A 0.54 0.54 0.0 0 1 591.72 156.48
  L 591.70 156.47
  A 0.58 0.57 -57.9 0 1 591.53 155.69
  Q 603.30 136.31 606.63 130.46
  Q 610.55 123.59 613.56 121.52
  Q 618.40 118.19 623.39 117.42
  C 643.37 114.31 655.34 139.89 639.62 153.09
  C 632.42 159.14 625.03 166.41 616.24 174.58
  A 0.45 0.45 0.0 0 1 615.63 174.57
  Z"
/>
<path fill="#ffffff" d="
  M 563.10 188.62
  L 527.18 188.62
  A 2.38 2.32 60.2 0 1 525.95 188.27
  Q 506.14 175.98 484.63 166.87
  Q 435.88 146.22 383.23 144.35
  Q 371.28 143.92 351.81 144.92
  A 0.60 0.60 0.0 0 1 351.18 144.32
  L 351.18 128.39
  A 0.67 0.66 87.7 0 1 351.79 127.72
  C 428.18 121.84 502.02 142.15 563.23 188.22
  A 0.22 0.22 0.0 0 1 563.10 188.62
  Z"
/>
<path fill="#ee2824" d="
  M 584.67 665.02
  L 638.03 665.03
  A 0.61 0.61 0.0 0 0 638.64 664.42
  Q 638.62 528.13 638.64 427.81
  C 638.65 396.38 637.77 371.53 634.08 341.74
  C 630.90 316.05 624.72 291.32 612.83 269.15
  Q 608.99 261.98 601.10 249.17
  Q 591.80 234.06 579.75 224.76
  Q 572.91 219.48 563.01 213.59
  L 558.56 210.28
  A 0.19 0.19 0.0 0 1 558.67 209.93
  L 689.91 209.93
  A 0.53 0.53 0.0 0 1 690.44 210.46
  L 690.44 268.90
  A 0.57 0.56 90.0 0 0 691.00 269.47
  L 707.74 269.47
  A 1.11 1.11 0.0 0 0 708.66 268.98
  C 730.73 236.15 763.97 214.16 801.68 203.81
  Q 824.94 197.43 850.77 198.95
  Q 876.42 200.46 894.17 204.81
  Q 959.16 220.74 1000.08 270.68
  C 1023.78 299.60 1039.00 336.40 1045.17 373.55
  C 1061.81 473.84 1024.93 592.39 927.13 637.35
  C 901.59 649.08 872.87 652.85 843.50 651.50
  C 817.08 650.29 789.60 644.77 765.99 633.53
  C 747.47 624.71 731.67 610.15 719.64 592.77
  A 1.09 1.07 -17.1 0 0 718.75 592.31
  L 702.08 592.31
  A 0.60 0.59 0.0 0 0 701.48 592.90
  L 701.48 818.01
  A 0.43 0.42 90.0 0 1 701.06 818.44
  L 584.93 818.44
  A 0.22 0.21 90.0 0 1 584.72 818.22
  L 584.67 665.02
  Z
  M 690.47 425.25
  C 690.45 465.02 704.21 504.92 737.50 528.83
  C 758.95 544.23 784.57 550.15 811.31 550.16
  C 838.05 550.17 863.68 544.26 885.13 528.87
  C 918.44 504.99 932.22 465.10 932.23 425.33
  C 932.25 385.56 918.49 345.66 885.20 321.75
  C 863.75 306.35 838.13 300.43 811.39 300.42
  C 784.65 300.41 759.02 306.32 737.57 321.70
  C 704.26 345.59 690.48 385.48 690.47 425.25
  Z"
/>
<path fill="#ee2824" d="
  M 195.28 266.95
  A 0.18 0.17 -19.4 0 1 195.57 267.08
  L 195.57 304.27
  A 1.15 1.13 72.1 0 1 195.11 305.19
  C 191.88 307.58 185.17 308.41 181.28 308.41
  C 175.10 308.41 164.41 307.40 155.65 310.68
  A 2.45 2.45 0.0 0 1 154.28 310.78
  L 150.49 309.92
  A 0.24 0.23 37.9 0 1 150.43 309.48
  Q 166.65 301.44 178.28 287.00
  C 182.72 281.48 188.24 272.40 195.28 266.95
  Z"
/>
<path fill="#231f20" d="
  M 811.39 300.42
  C 838.13 300.43 863.75 306.35 885.20 321.75
  C 918.49 345.66 932.25 385.56 932.23 425.33
  C 932.22 465.10 918.44 504.99 885.13 528.87
  C 863.68 544.26 838.05 550.17 811.31 550.16
  C 784.57 550.15 758.95 544.23 737.50 528.83
  C 704.21 504.92 690.45 465.02 690.47 425.25
  C 690.48 385.48 704.26 345.59 737.57 321.70
  C 759.02 306.32 784.65 300.41 811.39 300.42
  Z
  M 795.68 322.85
  L 798.81 338.58
  A 1.73 1.47 -52.9 0 1 798.84 339.12
  C 797.93 347.39 789.93 349.60 783.13 352.20
  A 0.81 0.81 0.0 0 0 782.63 353.09
  Q 788.37 384.52 789.08 416.59
  A 0.73 0.73 0.0 0 0 789.66 417.29
  C 795.73 418.57 807.95 420.71 807.69 429.03
  Q 807.64 430.83 807.28 440.18
  Q 807.10 444.81 805.90 446.61
  C 802.45 451.78 795.14 452.66 788.87 453.08
  A 0.76 0.76 0.0 0 0 788.17 453.78
  Q 785.97 484.41 778.73 514.89
  A 0.56 0.56 0.0 0 0 779.03 515.53
  C 784.66 518.22 791.01 520.21 793.16 527.43
  A 0.88 0.88 0.0 0 0 793.91 528.05
  C 836.75 532.39 876.18 522.34 898.12 482.37
  C 905.87 468.24 909.63 452.40 910.76 436.00
  C 913.43 397.23 902.22 356.83 867.42 335.29
  C 846.87 322.57 819.29 319.68 796.05 322.34
  A 0.43 0.42 81.3 0 0 795.68 322.85
  Z
  M 720.62 377.49
  L 749.70 370.50
  A 0.96 0.93 -30.2 0 1 750.54 370.71
  C 760.55 379.68 761.70 392.99 752.39 403.06
  A 1.90 1.86 17.5 0 1 751.22 403.65
  L 721.52 406.93
  A 0.17 0.16 80.5 0 0 721.38 407.13
  L 721.47 407.50
  A 0.39 0.39 0.0 0 0 721.86 407.80
  Q 742.90 407.16 749.70 407.11
  Q 757.45 407.06 760.97 405.50
  C 782.14 396.12 775.31 366.17 752.26 366.22
  Q 749.93 366.22 748.16 367.01
  Q 746.70 367.66 745.87 367.93
  Q 724.26 374.72 721.71 375.58
  A 2.10 2.10 0.0 0 0 720.66 376.39
  L 720.27 376.98
  A 0.33 0.33 0.0 0 0 720.62 377.49
  Z
  M 729.60 490.77
  L 731.10 492.62
  A 0.88 0.85 76.9 0 0 731.55 492.91
  L 745.87 496.78
  A 1.67 1.42 49.7 0 0 746.17 496.83
  Q 757.59 497.82 764.54 490.37
  C 769.38 485.19 771.23 477.56 769.15 470.87
  Q 765.79 460.02 754.22 456.68
  Q 752.42 456.16 748.94 456.35
  Q 733.06 457.24 715.65 457.91
  A 0.29 0.29 0.0 0 0 715.37 458.20
  L 715.36 458.52
  A 0.54 0.53 2.1 0 0 715.88 459.07
  L 750.44 459.99
  A 1.13 1.13 0.0 0 1 751.39 460.57
  Q 761.54 479.34 745.30 491.72
  A 3.22 3.21 -59.1 0 1 742.86 492.34
  L 729.84 490.34
  A 0.26 0.26 0.0 0 0 729.60 490.77
  Z"
/>
<path fill="#ffffff" d="
  M 422.50 439.46
  L 480.24 429.58
  A 0.55 0.55 0.0 0 1 480.88 430.12
  L 480.88 439.91
  A 0.74 0.73 86.0 0 1 480.25 440.64
  L 410.59 451.39
  A 0.19 0.19 0.0 0 0 410.61 451.77
  L 480.67 456.17
  A 0.27 0.27 0.0 0 1 480.92 456.44
  L 480.92 464.93
  A 0.21 0.21 0.0 0 1 480.70 465.14
  L 412.76 460.32
  A 0.19 0.19 0.0 0 0 412.70 460.69
  L 480.31 481.85
  A 0.89 0.89 0.0 0 1 480.93 482.70
  L 480.93 493.58
  A 0.27 0.27 0.0 0 1 480.57 493.83
  L 403.16 466.29
  A 0.15 0.15 0.0 0 0 403.03 466.56
  L 480.57 515.26
  A 0.75 0.75 0.0 0 1 480.93 515.90
  L 480.93 530.48
  A 0.24 0.24 0.0 0 1 480.56 530.68
  L 385.55 469.84
  A 0.14 0.14 0.0 0 0 385.38 470.05
  L 480.52 567.67
  A 1.45 1.45 0.0 0 1 480.92 568.67
  L 480.92 586.43
  A 0.24 0.24 0.0 0 1 480.50 586.60
  L 373.81 473.40
  A 0.13 0.13 0.0 0 0 373.60 473.56
  L 487.73 672.38
  A 0.39 0.39 0.0 0 1 487.55 672.93
  L 473.33 679.45
  A 0.43 0.43 0.0 0 1 472.78 679.26
  L 358.63 466.71
  A 0.14 0.14 0.0 0 0 358.37 466.82
  L 417.12 694.02
  A 0.27 0.27 0.0 0 1 416.89 694.36
  L 403.10 695.88
  A 0.87 0.86 80.1 0 1 402.17 695.22
  Q 397.08 673.10 352.06 476.47
  C 351.60 474.45 351.19 472.17 351.18 469.83
  Q 351.16 446.82 351.22 432.94
  A 1.20 1.19 -13.2 0 1 351.89 431.87
  Q 373.53 421.19 392.18 407.69
  C 415.95 390.50 432.61 364.72 436.42 335.62
  A 0.69 0.69 0.0 0 1 437.17 335.02
  L 437.20 335.03
  A 0.67 0.66 1.9 0 1 437.81 335.68
  Q 437.95 341.43 437.77 349.48
  C 437.23 373.23 417.29 396.03 399.83 411.34
  Q 380.96 427.90 359.47 441.67
  C 358.61 442.22 357.54 442.35 357.10 442.69
  A 0.32 0.32 0.0 0 0 357.22 443.25
  L 383.78 449.28
  A 1.51 1.49 38.7 0 0 384.76 449.18
  L 479.62 405.70
  A 0.13 0.12 76.9 0 1 479.79 405.81
  L 480.29 414.88
  A 0.30 0.29 -12.5 0 1 480.10 415.17
  L 422.40 439.11
  A 0.18 0.18 0.0 0 0 422.50 439.46
  Z"
/>
<path fill="#ffffff" d="
  M 720.62 377.49
  A 0.33 0.33 0.0 0 1 720.27 376.98
  L 720.66 376.39
  A 2.10 2.10 0.0 0 1 721.71 375.58
  Q 724.26 374.72 745.87 367.93
  Q 746.70 367.66 748.16 367.01
  Q 749.93 366.22 752.26 366.22
  C 775.31 366.17 782.14 396.12 760.97 405.50
  Q 757.45 407.06 749.70 407.11
  Q 742.90 407.16 721.86 407.80
  A 0.39 0.39 0.0 0 1 721.47 407.50
  L 721.38 407.13
  A 0.17 0.16 80.5 0 1 721.52 406.93
  L 751.22 403.65
  A 1.90 1.86 17.5 0 0 752.39 403.06
  C 761.70 392.99 760.55 379.68 750.54 370.71
  A 0.96 0.93 -30.2 0 0 749.70 370.50
  L 720.62 377.49
  Z"
/>
<path fill="#ffffff" d="
  M 729.84 490.34
  L 742.86 492.34
  A 3.22 3.21 -59.1 0 0 745.30 491.72
  Q 761.54 479.34 751.39 460.57
  A 1.13 1.13 0.0 0 0 750.44 459.99
  L 715.88 459.07
  A 0.54 0.53 2.1 0 1 715.36 458.52
  L 715.37 458.20
  A 0.29 0.29 0.0 0 1 715.65 457.91
  Q 733.06 457.24 748.94 456.35
  Q 752.42 456.16 754.22 456.68
  Q 765.79 460.02 769.15 470.87
  C 771.23 477.56 769.38 485.19 764.54 490.37
  Q 757.59 497.82 746.17 496.83
  A 1.67 1.42 49.7 0 1 745.87 496.78
  L 731.55 492.91
  A 0.88 0.85 76.9 0 1 731.10 492.62
  L 729.60 490.77
  A 0.26 0.26 0.0 0 1 729.84 490.34
  Z"
/>
<path fill="#ffffff" d="
  M 93.91 551.11
  C 93.68 557.96 90.79 566.17 84.36 569.26
  C 73.55 574.46 60.54 560.32 58.44 550.67
  C 56.44 541.49 62.96 534.53 71.38 532.49
  A 1.08 1.08 0.0 0 0 72.13 531.05
  C 70.11 525.99 56.57 525.33 52.61 525.18
  Q 52.40 525.17 51.97 524.89
  A 0.53 0.52 -47.9 0 1 51.93 524.05
  C 59.05 518.14 67.75 519.60 75.51 519.36
  Q 77.70 519.29 82.90 517.68
  A 5.60 5.53 -56.6 0 1 83.94 517.46
  Q 90.01 516.84 94.86 519.69
  C 102.12 523.96 108.36 531.46 111.93 538.67
  C 118.82 552.59 112.21 568.56 101.38 578.66
  Q 99.15 580.74 96.45 582.44
  A 0.51 0.51 0.0 0 1 95.71 582.21
  C 93.65 577.39 95.01 569.96 95.80 561.52
  C 96.03 559.07 95.93 552.87 94.40 550.95
  A 0.28 0.27 26.7 0 0 93.91 551.11
  Z"
/>
<path fill="#ffffff" d="
  M 274.98 676.40
  Q 274.92 676.66 274.87 676.76
  A 0.52 0.51 23.5 0 1 274.21 677.02
  Q 271.00 675.66 271.02 675.57
  Q 271.04 675.47 274.52 675.52
  A 0.52 0.51 0.2 0 1 275.03 676.02
  Q 275.03 676.14 274.98 676.40
  Z"
/>
<path fill="#ffffff" d="
  M 334.48 675.49
  L 346.22 675.49
  A 0.41 0.41 0.0 0 1 346.63 675.90
  L 346.63 696.32
  A 0.41 0.41 0.0 0 1 346.11 696.72
  L 334.37 693.55
  A 0.41 0.41 0.0 0 1 334.07 693.16
  L 334.07 675.90
  A 0.41 0.41 0.0 0 1 334.48 675.49
  Z"
/>
<path fill="#ffffff" d="
  M 500.18 737.83
  L 500.19 737.83
  A 0.47 0.47 0.0 0 1 500.76 738.13
  L 510.67 769.31
  A 0.98 0.97 -85.7 0 0 511.17 769.90
  C 523.59 775.94 535.94 770.74 541.95 758.52
  A 1.09 1.06 46.4 0 0 541.95 757.58
  L 527.76 726.83
  A 0.54 0.54 0.0 0 1 528.01 726.12
  L 528.03 726.10
  A 0.58 0.57 62.2 0 1 528.79 726.35
  Q 539.75 746.38 543.16 752.24
  Q 547.18 759.12 547.46 762.78
  Q 547.92 768.68 546.08 773.42
  C 538.71 792.40 510.38 789.93 506.80 769.57
  C 505.16 760.25 502.55 750.14 499.86 738.36
  A 0.45 0.45 0.0 0 1 500.18 737.83
  Z"
/>
<path fill="#ffffff" d="
  M 410.69 761.91
  L 410.98 761.86
  A 0.15 0.14 78.3 0 1 411.15 761.98
  L 417.19 794.26
  A 1.29 1.28 11.6 0 0 417.74 795.09
  C 429.24 802.88 442.19 799.70 449.90 788.58
  A 0.97 0.94 -37.3 0 0 450.03 787.73
  L 439.32 754.33
  A 0.33 0.32 -17.6 0 1 439.53 753.93
  L 439.81 753.84
  A 0.54 0.53 -19.3 0 1 440.47 754.15
  Q 449.56 777.05 451.53 781.60
  Q 454.85 789.27 454.73 793.29
  C 453.98 818.05 420.07 821.40 414.03 798.03
  Q 413.76 796.99 412.72 786.31
  Q 410.92 767.98 410.32 762.42
  A 0.47 0.46 81.3 0 1 410.69 761.91
  Z"
/>
<path fill="#ffffff" d="
  M 318.93 760.39
  L 319.22 760.41
  A 0.15 0.14 -88.6 0 1 319.36 760.56
  L 317.96 793.35
  A 1.29 1.28 24.6 0 0 318.31 794.28
  C 327.75 804.46 341.08 804.28 351.09 795.19
  A 0.97 0.94 -24.3 0 0 351.41 794.40
  L 348.51 759.47
  A 0.33 0.32 -4.5 0 1 348.80 759.12
  L 349.10 759.10
  A 0.54 0.53 -6.3 0 1 349.67 759.55
  Q 353.36 783.89 354.25 788.77
  Q 355.75 796.98 354.73 800.87
  C 348.42 824.80 314.65 820.42 314.04 796.31
  Q 314.01 795.24 315.40 784.60
  Q 317.78 766.35 318.45 760.80
  A 0.47 0.46 -85.6 0 1 318.93 760.39
  Z"
/>
<path fill="#231f20" d="
  M 547.45 917.00
  L 539.81 917.00
  Q 538.24 916.53 536.56 916.22
  C 519.75 913.15 513.33 896.00 517.85 881.28
  Q 521.77 868.52 536.67 864.67
  Q 541.24 863.49 547.66 864.28
  C 560.98 865.91 569.89 875.22 570.56 888.96
  Q 571.13 900.88 564.32 908.55
  Q 558.24 915.41 547.45 917.00
  Z
  M 543.4525 873.7802
  A 16.72 15.80 -90.3 0 0 527.7402 890.5827
  A 16.72 15.80 -90.3 0 0 543.6275 907.2198
  A 16.72 15.80 -90.3 0 0 559.3398 890.4173
  A 16.72 15.80 -90.3 0 0 543.4525 873.7802
  Z"
/>
<path fill="#231f20" d="
  M 48.00 866.32
  A 0.20 0.20 0.0 0 1 48.20 866.12
  L 68.23 866.02
  A 26.07 23.33 -0.3 0 1 94.42 889.21
  L 94.44 892.35
  A 26.07 23.33 -0.3 0 1 68.49 915.81
  L 48.46 915.92
  A 0.20 0.20 0.0 0 1 48.26 915.72
  L 48.00 866.32
  Z
  M 59.31 876.33
  L 59.25 905.69
  A 0.25 0.25 0.0 0 0 59.50 905.94
  L 67.77 905.95
  A 15.14 13.91 0.1 0 0 82.94 892.07
  L 82.94 890.03
  A 15.14 13.91 0.1 0 0 67.83 876.09
  L 59.56 876.08
  A 0.25 0.25 0.0 0 0 59.31 876.33
  Z"
/>
<path fill="#231f20" d="
  M 183.41 885.42
  L 183.41 894.58
  A 0.42 0.42 0.0 0 1 182.99 895.00
  L 162.02 895.00
  A 0.42 0.42 0.0 0 0 161.60 895.42
  L 161.60 905.58
  A 0.42 0.42 0.0 0 0 162.02 906.00
  L 185.56 906.00
  A 0.42 0.42 0.0 0 1 185.98 906.42
  L 185.98 915.56
  A 0.42 0.42 0.0 0 1 185.56 915.98
  L 150.97 915.98
  A 0.42 0.42 0.0 0 1 150.55 915.56
  L 150.55 866.42
  A 0.42 0.42 0.0 0 1 150.97 866.00
  L 184.31 866.00
  A 0.42 0.42 0.0 0 1 184.73 866.42
  L 184.73 875.58
  A 0.42 0.42 0.0 0 1 184.31 876.00
  L 162.02 876.00
  A 0.42 0.42 0.0 0 0 161.60 876.42
  L 161.60 884.58
  A 0.42 0.42 0.0 0 0 162.02 885.00
  L 182.99 885.00
  A 0.42 0.42 0.0 0 1 183.41 885.42
  Z"
/>
<path fill="#231f20" d="
  M 276.20 866.00
  L 287.34 866.00
  A 0.34 0.34 0.0 0 1 287.65 866.47
  L 267.20 915.78
  A 0.34 0.34 0.0 0 1 266.88 915.99
  L 258.46 915.99
  A 0.34 0.34 0.0 0 1 258.14 915.78
  L 238.33 866.48
  A 0.34 0.34 0.0 0 1 238.64 866.01
  L 250.57 866.01
  A 0.34 0.34 0.0 0 1 250.88 866.23
  L 262.95 898.16
  A 0.34 0.34 0.0 0 0 263.59 898.16
  L 275.89 866.22
  A 0.34 0.34 0.0 0 1 276.20 866.00
  Z"
/>
<path fill="#231f20" d="
  M 352.60 876.37
  L 352.60 884.63
  A 0.37 0.37 0.0 0 0 352.97 885.00
  L 373.96 885.00
  A 0.44 0.44 0.0 0 1 374.40 885.44
  L 374.40 894.55
  A 0.45 0.45 0.0 0 1 373.95 895.00
  L 353.21 895.00
  A 0.61 0.61 0.0 0 0 352.60 895.61
  L 352.60 905.43
  A 0.57 0.57 0.0 0 0 353.17 906.00
  L 376.09 906.00
  A 0.92 0.92 0.0 0 1 377.01 906.92
  L 377.00 915.00
  A 0.98 0.97 0.0 0 1 376.02 915.97
  L 341.94 916.00
  A 0.39 0.39 0.0 0 1 341.55 915.61
  L 341.55 866.30
  A 0.30 0.29 -90.0 0 1 341.84 866.00
  L 375.24 866.00
  A 0.49 0.49 0.0 0 1 375.73 866.49
  L 375.73 875.49
  A 0.49 0.49 0.0 0 1 375.24 875.99
  L 352.97 876.00
  A 0.37 0.36 -0.8 0 0 352.60 876.37
  Z"
/>
<path fill="#231f20" d="
  M 465.14 906.34
  L 465.14 915.66
  A 0.34 0.34 0.0 0 1 464.80 916.00
  L 433.88 916.00
  A 0.34 0.34 0.0 0 1 433.54 915.66
  L 433.54 866.34
  A 0.34 0.34 0.0 0 1 433.88 866.00
  L 444.26 866.00
  A 0.34 0.34 0.0 0 1 444.60 866.34
  L 444.60 905.66
  A 0.34 0.34 0.0 0 0 444.94 906.00
  L 464.80 906.00
  A 0.34 0.34 0.0 0 1 465.14 906.34
  Z"
/>
<path fill="#231f20" d="
  M 626.13 915.41
  L 626.13 866.60
  A 0.58 0.58 0.0 0 1 626.71 866.02
  Q 642.48 865.97 647.49 866.04
  Q 649.77 866.08 653.84 867.15
  Q 661.13 869.08 663.34 876.15
  C 664.27 879.14 664.09 884.73 662.57 887.86
  Q 659.39 894.45 651.47 895.44
  Q 650.47 895.57 649.84 895.73
  A 2.07 0.20 -17.0 0 1 648.51 896.00
  L 637.66 895.98
  A 0.53 0.52 90.0 0 0 637.14 896.51
  L 637.14 915.41
  A 0.59 0.59 0.0 0 1 636.55 916.00
  L 626.72 916.00
  A 0.59 0.59 0.0 0 1 626.13 915.41
  Z
  M 637.15 875.26
  L 637.13 886.78
  A 0.23 0.23 0.0 0 0 637.36 887.01
  L 645.39 887.02
  A 7.02 5.72 0.1 0 0 652.42 881.31
  L 652.42 880.77
  A 7.02 5.72 0.1 0 0 645.41 875.04
  L 637.38 875.03
  A 0.23 0.23 0.0 0 0 637.15 875.26
  Z"
/>
<path fill="#231f20" d="
  M 747.47 898.37
  Q 747.64 898.37 747.73 898.12
  Q 751.83 886.64 758.99 866.59
  A 0.84 0.84 0.0 0 1 759.78 866.03
  L 775.27 866.03
  A 0.58 0.58 0.0 0 1 775.85 866.61
  L 775.85 915.39
  A 0.64 0.64 0.0 0 1 775.21 916.03
  L 765.43 916.03
  A 0.59 0.59 0.0 0 1 764.84 915.44
  L 764.84 878.26
  A 0.17 0.17 0.0 0 0 764.51 878.21
  L 751.93 915.31
  A 1.08 1.05 1.3 0 1 751.20 915.99
  Q 751.14 916.00 747.45 916.00
  Q 743.75 915.99 743.70 915.98
  A 1.08 1.05 -1.2 0 1 742.97 915.30
  L 730.49 878.16
  A 0.17 0.17 0.0 0 0 730.16 878.21
  L 730.06 915.39
  A 0.59 0.59 0.0 0 1 729.47 915.98
  L 719.69 915.95
  A 0.64 0.64 0.0 0 1 719.05 915.31
  L 719.19 866.53
  A 0.58 0.58 0.0 0 1 719.77 865.95
  L 735.26 866.00
  A 0.84 0.84 0.0 0 1 736.05 866.56
  Q 743.15 886.63 747.22 898.12
  Q 747.30 898.37 747.47 898.37
  Z"
/>
<path fill="#231f20" d="
  M 845.60 876.37
  L 845.60 884.63
  A 0.37 0.37 0.0 0 0 845.97 885.00
  L 866.96 885.00
  A 0.44 0.44 0.0 0 1 867.40 885.44
  L 867.40 894.55
  A 0.45 0.45 0.0 0 1 866.95 895.00
  L 846.21 895.00
  A 0.61 0.61 0.0 0 0 845.60 895.61
  L 845.60 905.43
  A 0.57 0.57 0.0 0 0 846.17 906.00
  L 869.08 906.00
  A 0.92 0.92 0.0 0 1 870.00 906.92
  L 869.99 915.00
  A 0.98 0.97 0.0 0 1 869.01 915.97
  L 834.94 916.00
  A 0.39 0.39 0.0 0 1 834.55 915.61
  L 834.55 866.30
  A 0.30 0.29 -90.0 0 1 834.84 866.00
  L 868.24 866.00
  A 0.49 0.49 0.0 0 1 868.73 866.49
  L 868.73 875.49
  A 0.49 0.49 0.0 0 1 868.24 875.99
  L 845.97 876.00
  A 0.37 0.36 -0.7 0 0 845.60 876.37
  Z"
/>
<path fill="#231f20" d="
  M 926.47 866.00
  L 940.95 866.00
  A 0.34 0.34 0.0 0 1 941.24 866.16
  L 961.98 899.86
  A 0.34 0.34 0.0 0 0 962.61 899.68
  L 962.61 866.34
  A 0.34 0.34 0.0 0 1 962.95 866.00
  L 973.38 866.00
  A 0.34 0.34 0.0 0 1 973.72 866.34
  L 973.72 915.65
  A 0.34 0.34 0.0 0 1 973.38 915.99
  L 959.43 915.99
  A 0.34 0.34 0.0 0 1 959.14 915.83
  L 937.76 881.10
  A 0.34 0.34 0.0 0 0 937.13 881.28
  L 937.13 915.65
  A 0.34 0.34 0.0 0 1 936.79 915.99
  L 926.47 915.99
  A 0.34 0.34 0.0 0 1 926.13 915.65
  L 926.13 866.34
  A 0.34 0.34 0.0 0 1 926.47 866.00
  Z"
/>
<path fill="#231f20" d="
  M 1047.39 866.00
  Q 1057.38 866.00 1066.89 866.02
  A 0.38 0.37 89.9 0 1 1067.26 866.40
  L 1067.26 875.64
  A 0.37 0.36 -0.0 0 1 1066.89 876.00
  L 1053.47 876.00
  A 0.60 0.59 90.0 0 0 1052.88 876.60
  L 1052.87 915.30
  A 0.68 0.67 86.6 0 1 1052.28 915.97
  Q 1052.04 916.00 1047.36 916.00
  Q 1042.69 916.00 1042.45 915.97
  A 0.68 0.67 -86.5 0 1 1041.86 915.29
  L 1041.89 876.59
  A 0.60 0.59 -89.9 0 0 1041.30 875.99
  L 1027.88 875.98
  A 0.37 0.36 0.1 0 1 1027.51 875.62
  L 1027.52 866.38
  A 0.38 0.37 -89.8 0 1 1027.90 866.00
  Q 1037.41 865.99 1047.39 866.00
  Z"
/>
</svg>
