<?xml version="1.0" encoding="UTF-8" standalone="no"?>
<!DOCTYPE svg PUBLIC "-//W3C//DTD SVG 1.1//EN" "http://www.w3.org/Graphics/SVG/1.1/DTD/svg11.dtd">
<svg xmlns="http://www.w3.org/2000/svg" version="1.1" viewBox="0.00 0.00 1536.00 672.00">
<g stroke-width="2.00" fill="#100f10" stroke="#868687" stroke-linecap="butt">
<path vector-effect="non-scaling-stroke" d="
  M 76.6444 228.2619
  A 3.04 1.14 -137.9 0 0 78.1357 231.1459
  A 3.04 1.14 -137.9 0 0 81.1556 232.3381
  A 3.04 1.14 -137.9 0 0 79.6643 229.4541
  A 3.04 1.14 -137.9 0 0 76.6444 228.2619"
/>
<path vector-effect="non-scaling-stroke" d="
  M 82.7016 243.8044
  A 1.55 1.10 -130.1 0 0 82.8586 245.6985
  A 1.55 1.10 -130.1 0 0 84.6984 246.1756
  A 1.55 1.10 -130.1 0 0 84.5414 244.2815
  A 1.55 1.10 -130.1 0 0 82.7016 243.8044"
/>
<path vector-effect="non-scaling-stroke" d="
  M 191.59 252.46
  A 0.63 0.63 0.0 0 0 190.96 251.83
  A 0.63 0.63 0.0 0 0 190.33 252.46
  A 0.63 0.63 0.0 0 0 190.96 253.09
  A 0.63 0.63 0.0 0 0 191.59 252.46"
/>
<path vector-effect="non-scaling-stroke" d="
  M 185.9501 254.4112
  A 1.25 0.95 -172.7 0 0 187.0693 255.5123
  A 1.25 0.95 -172.7 0 0 188.4299 254.7288
  A 1.25 0.95 -172.7 0 0 187.3107 253.6277
  A 1.25 0.95 -172.7 0 0 185.9501 254.4112"
/>
<path vector-effect="non-scaling-stroke" d="
  M 1319.7435 255.4328
  A 1.22 1.00 -19.0 0 0 1318.2644 254.8845
  A 1.22 1.00 -19.0 0 0 1317.4365 256.2272
  A 1.22 1.00 -19.0 0 0 1318.9156 256.7755
  A 1.22 1.00 -19.0 0 0 1319.7435 255.4328"
/>
<path vector-effect="non-scaling-stroke" d="
  M 97.9792 256.3198
  A 0.96 0.73 -2.4 0 0 96.9894 255.6306
  A 0.96 0.73 -2.4 0 0 96.0608 256.4002
  A 0.96 0.73 -2.4 0 0 97.0506 257.0894
  A 0.96 0.73 -2.4 0 0 97.9792 256.3198"
/>
<path vector-effect="non-scaling-stroke" d="
  M 1359.0344 257.4407
  A 1.41 0.82 -32.1 0 0 1357.4043 257.4954
  A 1.41 0.82 -32.1 0 0 1356.6456 258.9393
  A 1.41 0.82 -32.1 0 0 1358.2757 258.8846
  A 1.41 0.82 -32.1 0 0 1359.0344 257.4407"
/>
<path vector-effect="non-scaling-stroke" d="
  M 152.0988 257.8471
  A 2.04 0.98 -148.6 0 0 153.3294 259.7465
  A 2.04 0.98 -148.6 0 0 155.5812 259.9729
  A 2.04 0.98 -148.6 0 0 154.3506 258.0735
  A 2.04 0.98 -148.6 0 0 152.0988 257.8471"
/>
<path vector-effect="non-scaling-stroke" d="
  M 159.0200 261.4272
  A 3.09 1.64 -150.9 0 0 160.9224 264.3630
  A 3.09 1.64 -150.9 0 0 164.4200 264.4328
  A 3.09 1.64 -150.9 0 0 162.5176 261.4970
  A 3.09 1.64 -150.9 0 0 159.0200 261.4272"
/>
<path vector-effect="non-scaling-stroke" d="
  M 1426.2762 262.9504
  A 1.32 0.96 -10.9 0 0 1424.7985 262.2573
  A 1.32 0.96 -10.9 0 0 1423.6838 263.4496
  A 1.32 0.96 -10.9 0 0 1425.1615 264.1427
  A 1.32 0.96 -10.9 0 0 1426.2762 262.9504"
/>
<path vector-effect="non-scaling-stroke" d="
  M 1351.4828 262.6432
  A 1.50 0.39 -24.7 0 0 1349.9570 262.9157
  A 1.50 0.39 -24.7 0 0 1348.7572 263.8968
  A 1.50 0.39 -24.7 0 0 1350.2830 263.6243
  A 1.50 0.39 -24.7 0 0 1351.4828 262.6432"
/>
<path vector-effect="non-scaling-stroke" d="
  M 104.9268 266.3766
  A 2.21 1.06 -175.5 0 0 107.0468 267.6067
  A 2.21 1.06 -175.5 0 0 109.3332 266.7234
  A 2.21 1.06 -175.5 0 0 107.2132 265.4933
  A 2.21 1.06 -175.5 0 0 104.9268 266.3766"
/>
</g>
</svg>
