<?xml version="1.0" encoding="UTF-8" standalone="no"?>
<!DOCTYPE svg PUBLIC "-//W3C//DTD SVG 1.1//EN" "http://www.w3.org/Graphics/SVG/1.1/DTD/svg11.dtd">
<svg xmlns="http://www.w3.org/2000/svg" version="1.1" viewBox="0.00 0.00 1536.00 672.00">
<g stroke-width="2.00" fill="none" stroke-linecap="butt">
<path stroke="#8b8a8a" vector-effect="non-scaling-stroke" d="
  M 1414.86 177.85
  L 1400.77 187.17
  A 4.34 4.16 -88.8 0 0 1399.58 188.36
  L 1397.92 190.87
  A 0.48 0.48 0.0 0 0 1398.54 191.57
  L 1407.18 187.12
  A 2.59 2.45 6.0 0 0 1407.94 186.54
  L 1415.26 178.31
  A 0.31 0.31 0.0 0 0 1414.86 177.85"
/>
<path stroke="#8b8a8a" vector-effect="non-scaling-stroke" d="
  M 1421.7900 185.8137
  A 2.77 1.08 -40.7 0 0 1418.9857 186.8012
  A 2.77 1.08 -40.7 0 0 1417.5900 189.4263
  A 2.77 1.08 -40.7 0 0 1420.3943 188.4388
  A 2.77 1.08 -40.7 0 0 1421.7900 185.8137"
/>
<path stroke="#8b8a8a" vector-effect="non-scaling-stroke" d="
  M 1406.26 189.75
  C 1406.00 189.98 1405.84 190.79 1405.17 191.29
  Q 1400.53 194.80 1395.85 200.31
  A 0.34 0.34 0.0 0 0 1396.20 200.85
  L 1405.25 198.28
  A 0.47 0.46 87.9 0 0 1405.56 197.94
  Q 1406.24 194.85 1406.19 192.47
  C 1406.18 191.64 1406.99 190.60 1406.94 190.02
  A 0.41 0.41 0.0 0 0 1406.26 189.75"
/>
<path stroke="#8b8a8a" vector-effect="non-scaling-stroke" d="
  M 1428.41 200.19
  Q 1423.23 203.77 1419.78 206.55
  A 0.11 0.11 0.0 0 0 1419.87 206.74
  Q 1426.10 205.21 1430.01 202.51
  Q 1433.92 199.81 1437.56 194.53
  A 0.11 0.11 0.0 0 0 1437.41 194.37
  Q 1433.59 196.61 1428.41 200.19"
/>
<path stroke="#8b8a8a" vector-effect="non-scaling-stroke" d="
  M 1375.7554 198.7209
  A 0.91 0.91 0.0 0 0 1374.4962 198.4556
  L 1369.7044 201.5793
  A 0.91 0.91 0.0 0 0 1369.4390 202.8385
  L 1369.5046 202.9391
  A 0.91 0.91 0.0 0 0 1370.7638 203.2044
  L 1375.5556 200.0807
  A 0.91 0.91 0.0 0 0 1375.8210 198.8215
  L 1375.7554 198.7209"
/>
<path stroke="#8b8a8a" vector-effect="non-scaling-stroke" d="
  M 1359.7971 207.0223
  A 4.53 0.82 -35.3 0 0 1355.6262 208.9708
  A 4.53 0.82 -35.3 0 0 1352.4029 212.2577
  A 4.53 0.82 -35.3 0 0 1356.5738 210.3092
  A 4.53 0.82 -35.3 0 0 1359.7971 207.0223"
/>
<path stroke="#8b8a8a" vector-effect="non-scaling-stroke" d="
  M 1369.8836 209.4303
  A 4.36 1.49 -39.1 0 0 1365.5603 211.0237
  A 4.36 1.49 -39.1 0 0 1363.1164 214.9297
  A 4.36 1.49 -39.1 0 0 1367.4397 213.3363
  A 4.36 1.49 -39.1 0 0 1369.8836 209.4303"
/>
<path stroke="#8b8a8a" vector-effect="non-scaling-stroke" d="
  M 1387.96 210.57
  A 0.25 0.25 0.0 0 0 1387.66 210.20
  L 1378.96 214.23
  A 1.19 1.19 0.0 0 0 1379.07 216.43
  C 1382.73 217.72 1385.95 213.44 1387.96 210.57"
/>
<path stroke="#8b8a8a" vector-effect="non-scaling-stroke" d="
  M 1330.42 232.64
  A 0.30 0.30 0.0 0 1 1330.89 232.96
  Q 1330.49 234.28 1329.29 235.20
  A 0.75 0.74 -33.6 0 0 1329.09 236.17
  L 1330.55 238.69
  A 0.69 0.69 0.0 0 0 1331.39 239.00
  C 1335.06 237.65 1337.71 235.72 1343.06 232.29
  A 0.74 0.66 -85.2 0 0 1343.25 232.11
  L 1345.66 228.87
  A 0.38 0.37 9.2 0 0 1345.24 228.29
  Q 1339.74 230.14 1335.49 233.79
  A 1.55 1.54 28.8 0 1 1334.24 234.15
  L 1333.84 234.08
  A 0.41 0.40 -59.1 0 1 1333.66 233.36
  Q 1337.94 230.06 1340.19 227.70
  Q 1340.83 227.03 1345.15 224.59
  A 3.53 3.39 2.4 0 0 1346.25 223.62
  C 1347.87 221.39 1348.36 219.51 1351.03 218.29
  C 1352.21 217.75 1355.80 216.47 1357.01 214.82
  A 0.73 0.73 0.0 0 0 1356.22 213.69
  L 1351.88 214.92
  A 0.71 0.69 -80.4 0 0 1351.51 215.19
  Q 1350.98 215.98 1349.17 216.67
  A 0.41 0.41 0.0 0 1 1348.62 216.27
  Q 1348.66 215.21 1348.07 214.79
  A 0.92 0.91 -41.6 0 0 1347.11 214.74
  C 1340.73 218.27 1334.08 222.89 1327.77 226.52
  Q 1316.89 232.78 1312.70 234.93
  A 0.94 0.94 0.0 0 0 1312.75 236.63
  L 1319.19 239.47
  A 2.56 2.56 0.0 0 0 1321.50 239.34
  L 1328.09 235.53
  A 0.81 0.80 -5.2 0 0 1328.46 235.09
  Q 1328.88 233.85 1330.42 232.64"
/>
<path vector-effect="non-scaling-stroke" d="
  M 1403.3692 216.6450
  A 2.76 0.97 -23.6 0 0 1400.4517 216.8611
  A 2.76 0.97 -23.6 0 0 1398.3108 218.8550
  A 2.76 0.97 -23.6 0 0 1401.2283 218.6389
  A 2.76 0.97 -23.6 0 0 1403.3692 216.6450"
/>
<path vector-effect="non-scaling-stroke" d="
  M 1417.78 222.45
  L 1424.42 220.71
  A 0.62 0.61 -38.7 0 0 1424.55 219.57
  Q 1422.96 218.74 1423.22 216.76
  A 0.54 0.54 0.0 0 0 1422.28 216.32
  L 1417.34 221.71
  A 0.45 0.45 0.0 0 0 1417.78 222.45"
/>
<path vector-effect="non-scaling-stroke" d="
  M 1371.3772 218.6669
  A 3.65 0.76 -34.8 0 0 1367.9463 220.1259
  A 3.65 0.76 -34.8 0 0 1365.3828 222.8331
  A 3.65 0.76 -34.8 0 0 1368.8137 221.3741
  A 3.65 0.76 -34.8 0 0 1371.3772 218.6669"
/>
</g>
</svg>
